<svg class="h-full w-full" viewBox="5 20 110 100" fill="none" xmlns="http://www.w3.org/2000/svg">
  <path
    d="M25.1641 85H19.7324V70.1289L19.7852 67.6855L19.873 65.0137C18.9707 65.916 18.3438 66.5078 17.9922 66.7891L15.0391 69.1621L12.4199 65.8926L20.6992 59.3008H25.1641V85ZM32.916 82.4863C32.916 81.502 33.1797 80.7578 33.707 80.2539C34.2344 79.75 35.002 79.498 36.0098 79.498C36.9824 79.498 37.7324 79.7559 38.2598 80.2715C38.7988 80.7871 39.0684 81.5254 39.0684 82.4863C39.0684 83.4121 38.7988 84.1445 38.2598 84.6836C37.7207 85.2109 36.9707 85.4746 36.0098 85.4746C35.0254 85.4746 34.2637 85.2168 33.7246 84.7012C33.1855 84.1738 32.916 83.4355 32.916 82.4863ZM61.1113 79.6738H58.0176V85H52.709V79.6738H41.7402V75.8945L53.0078 59.3008H58.0176V75.4551H61.1113V79.6738ZM52.709 75.4551V71.0957C52.709 70.3691 52.7383 69.3145 52.7969 67.9316C52.8555 66.5488 52.9023 65.7461 52.9375 65.5234H52.7969C52.3633 66.4844 51.8418 67.4219 51.2324 68.3359L46.5215 75.4551H52.709ZM71.9922 58.9668C74.4531 58.9668 76.4336 59.5293 77.9336 60.6543C79.4453 61.7676 80.2012 63.2734 80.2012 65.1719C80.2012 66.4844 79.8379 67.6562 79.1113 68.6875C78.3848 69.707 77.2129 70.6211 75.5957 71.4297C77.5176 72.4609 78.8945 73.5391 79.7266 74.6641C80.5703 75.7773 80.9922 77.002 80.9922 78.3379C80.9922 80.4473 80.166 82.1465 78.5137 83.4355C76.8613 84.7129 74.6875 85.3516 71.9922 85.3516C69.1797 85.3516 66.9707 84.7539 65.3652 83.5586C63.7598 82.3633 62.957 80.6699 62.957 78.4785C62.957 77.0137 63.3438 75.7129 64.1172 74.5762C64.9023 73.4395 66.1562 72.4375 67.8789 71.5703C66.4141 70.6445 65.3594 69.6543 64.7148 68.5996C64.0703 67.5449 63.748 66.3906 63.748 65.1367C63.748 63.2969 64.5098 61.8086 66.0332 60.6719C67.5566 59.5352 69.543 58.9668 71.9922 58.9668ZM67.9844 78.1621C67.9844 79.1699 68.3359 79.9551 69.0391 80.5176C69.7422 81.0801 70.7031 81.3613 71.9219 81.3613C73.2695 81.3613 74.2773 81.0742 74.9453 80.5C75.6133 79.9141 75.9473 79.1465 75.9473 78.1973C75.9473 77.4121 75.6133 76.6797 74.9453 76C74.2891 75.3086 73.2168 74.5762 71.7285 73.8027C69.2324 74.9512 67.9844 76.4043 67.9844 78.1621ZM71.957 62.9395C71.0312 62.9395 70.2812 63.1797 69.707 63.6602C69.1445 64.1289 68.8633 64.7617 68.8633 65.5586C68.8633 66.2617 69.0859 66.8945 69.5312 67.457C69.9883 68.0078 70.8086 68.5762 71.9922 69.1621C73.1406 68.623 73.9434 68.0723 74.4004 67.5098C74.8574 66.9473 75.0859 66.2969 75.0859 65.5586C75.0859 64.75 74.793 64.1113 74.207 63.6426C73.6211 63.1738 72.8711 62.9395 71.957 62.9395ZM87.7949 67C87.7949 68.4883 87.9238 69.6016 88.1816 70.3398C88.4512 71.0664 88.8789 71.4297 89.4648 71.4297C90.5898 71.4297 91.1523 69.9531 91.1523 67C91.1523 64.0703 90.5898 62.6055 89.4648 62.6055C88.8789 62.6055 88.4512 62.9688 88.1816 63.6953C87.9238 64.4102 87.7949 65.5117 87.7949 67ZM95.582 66.9648C95.582 69.6602 95.0605 71.6875 94.0176 73.0469C92.9746 74.3945 91.4453 75.0684 89.4297 75.0684C87.4961 75.0684 86.002 74.377 84.9473 72.9941C83.8926 71.5996 83.3652 69.5898 83.3652 66.9648C83.3652 61.6094 85.3867 58.9316 89.4297 58.9316C91.4102 58.9316 92.9277 59.6289 93.9824 61.0234C95.0488 62.4062 95.582 64.3867 95.582 66.9648ZM107.676 59.3008L93.4199 85H89.2012L103.457 59.3008H107.676ZM105.795 77.2656C105.795 78.7539 105.924 79.8672 106.182 80.6055C106.451 81.332 106.879 81.6953 107.465 81.6953C108.59 81.6953 109.152 80.2188 109.152 77.2656C109.152 74.3359 108.59 72.8711 107.465 72.8711C106.879 72.8711 106.451 73.2344 106.182 73.9609C105.924 74.6758 105.795 75.7773 105.795 77.2656ZM113.582 77.2305C113.582 79.9141 113.061 81.9355 112.018 83.2949C110.975 84.6426 109.445 85.3164 107.43 85.3164C105.496 85.3164 104.002 84.625 102.947 83.2422C101.893 81.8477 101.365 79.8438 101.365 77.2305C101.365 71.875 103.387 69.1973 107.43 69.1973C109.41 69.1973 110.928 69.8945 111.982 71.2891C113.049 72.6719 113.582 74.6523 113.582 77.2305Z"
    className="fill-accent5 stroke-accent5" />
</svg>