<svg class="h-full w-full" version="1.1" viewBox="180 200 800 800" xmlns="http://www.w3.org/2000/svg">
    <g fill-rule="evenodd">
        <path class="fill-accent5"
            d="m282.27 267.38c-4.0078 0.0625-7.8281 1.7109-10.617 4.582-2.793 2.875-4.3281 6.7383-4.2734 10.746v634.8c0 4.0078 1.5938 7.8516 4.4297 10.684 2.832 2.8359 6.6758 4.4297 10.688 4.4297h634.8-0.003907c4.0469 0.054688 7.9414-1.5156 10.82-4.3555 2.8789-2.8398 4.5-6.7148 4.5-10.758 0-4.0469-1.6211-7.9219-4.5-10.762s-6.7734-4.4062-10.82-4.3516h-619.69v-619.69c0.058594-4.0859-1.5391-8.0195-4.4297-10.906s-6.8281-4.4805-10.91-4.4219z" />
        <path class="fill-accent5"
            d="m827.6 472.48c-4.9844-0.011719-9.6562 2.4336-12.484 6.5352l-163.63 230.29-72.961-111.57h-0.003907c-2.4766-3.7812-6.5156-6.2617-11.008-6.75-4.4961-0.49219-8.9727 1.0547-12.207 4.2148l-189.57 185.31c-2.957 2.7812-4.668 6.6367-4.75 10.691-0.085937 4.0586 1.4648 7.9766 4.3047 10.879 2.8359 2.9023 6.7188 4.543 10.777 4.5508 4.0586 0.007812 7.9492-1.6172 10.801-4.5078l176.42-172.45 75.031 114.73-0.003906-0.003906c2.7383 4.1836 7.3633 6.7422 12.359 6.8398s9.7188-2.2812 12.613-6.3555l176.47-248.37v0.003906c2.207-3.0156 3.2188-6.7422 2.8398-10.461-0.37891-3.7148-2.1211-7.1602-4.8906-9.668-2.7695-2.5117-6.3711-3.9023-10.105-3.9141z" />
    </g>
</svg>