<svg class="h-full w-full" viewBox="0 0 125 126" fill="none" xmlns="http://www.w3.org/2000/svg">
  <path
    d="M11 56.8235L24.5726 66.9706L39.7903 48.7059L48.4274 60.2059L52.9516 54.1176L61.5887 66.9706L73.1048 46L80.0968 63.5882L85.4435 54.1176L91.6129 63.5882L101.484 51.4118L113 69"
    className="stroke-accent5" stroke-width="3" />
  <path
    d="M11 99.1326C13.2024 89.1555 18.1854 72.8852 20.498 87.6206C23.3887 106.04 27.5182 100.284 27.9312 89.923C28.3441 79.5622 31.6478 81.8646 31.2348 85.3182C30.8219 88.7718 34.5385 91.8417 34.5385 83.3995C34.5385 74.9574 40.3198 64.9804 44.0364 83.3995C47.753 101.819 52.7085 85.3182 53.9474 87.6206C55.1862 89.923 58.0769 105.656 63.0324 94.1441C67.9879 82.6321 70.4656 82.6321 75.0081 89.923C79.5506 97.2139 84.0931 100.668 87.8097 94.1441C91.5263 87.6206 95.6559 81.8646 101.024 93.3766C105.319 102.586 110.798 101.563 113 99.9001"
    className="stroke-accent5" stroke-width="3" />
  <path d="M105.463 73.0729L101.305 51L115.307 61.0591L105.463 73.0729Z" className="fill-accent5" />
</svg>