<?xml version="1.0" encoding="UTF-8"?>
<svg class="h-full w-full" version="1.1" viewBox="0 0 1200 1200" xmlns="http://www.w3.org/2000/svg">
    <path class="fill-accent5"
        d="m1092 1110h-972c-9.9492 0-18-8.0625-18-18v-972c0-9.9375 8.0508-18 18-18s18 8.0625 18 18v954h954c9.9375 0 18 8.0625 18 18s-8.0625 18-18 18zm-174-648c-39.758 0-72-32.242-72-72s32.242-72 72-72 72 32.242 72 72-32.242 72-72 72zm-132 360c-39.758 0-72-32.242-72-72s32.242-72 72-72 72 32.242 72 72-32.242 72-72 72zm-276-156c-39.758 0-72-32.242-72-72s32.242-72 72-72 72 32.242 72 72-32.242 72-72 72zm-192 300c-39.758 0-72-32.242-72-72s32.242-72 72-72 72 32.242 72 72-32.242 72-72 72z"
        fill-rule="evenodd" />
</svg>