<svg width="575" height="464" viewBox="0 0 575 464" fill="none" xmlns="http://www.w3.org/2000/svg">
<path d="M278 166.5H569C572.038 166.5 574.5 168.962 574.5 172V458C574.5 461.038 572.038 463.5 569 463.5H278C274.962 463.5 272.5 461.038 272.5 458V172C272.5 168.962 274.962 166.5 278 166.5Z" fill="#2E83FF" fill-opacity="0.2" stroke="#2E83FF"/>
<rect x="318" y="290.114" width="191.496" height="14.2135" rx="7.10673" fill="#2E83FF" fill-opacity="0.8"/>
<rect x="318" y="318.541" width="116.352" height="14.2135" rx="7.10673" fill="#2E83FF" fill-opacity="0.4"/>
<rect x="318" y="401.453" width="176.952" height="14.2135" rx="7.10673" fill="#2E83FF" fill-opacity="0.7"/>
<rect x="318" y="346.968" width="101.808" height="14.2135" rx="7.10673" fill="#2E83FF"/>
<rect x="318" y="373.026" width="121.2" height="14.2135" rx="7.10673" fill="#2E83FF" fill-opacity="0.3"/>
<g clip-path="url(#clip0_2_412)">
<path d="M501.693 369.378C501.287 369.025 500.824 368.771 500.346 368.587C505.508 362.313 508.614 354.316 508.614 345.613C508.614 325.426 491.991 309.065 471.48 309.065C450.968 309.065 434.352 325.426 434.352 345.613C434.352 365.799 450.975 382.16 471.48 382.16C480.24 382.16 488.291 379.168 494.641 374.171C494.887 374.82 495.278 375.427 495.843 375.921L498.869 378.54C500.701 380.128 503.503 379.958 505.117 378.151C506.732 376.344 506.558 373.592 504.719 372.004L501.693 369.385V369.378Z" fill="#2E83FF" fill-opacity="0.4"/>
<path d="M471.487 373.952C487.389 373.952 500.281 361.264 500.281 345.613C500.281 329.962 487.389 317.274 471.487 317.274C455.584 317.274 442.693 329.962 442.693 345.613C442.693 361.264 455.584 373.952 471.487 373.952Z" fill="#2E83FF" fill-opacity="0.6"/>
<path d="M541.159 402.954C544.142 405.841 544.2 410.549 541.289 413.464C538.378 416.379 533.6 416.4 530.61 413.513L501.975 385.803C498.992 382.916 498.934 378.208 501.845 375.293C504.755 372.378 509.534 372.357 512.524 375.243L541.159 402.954Z" fill="#2E83FF" fill-opacity="0.6"/>
<path d="M504.965 378.278C503.604 379.669 501.512 379.979 499.817 379.147C499.39 381.49 500.114 383.996 501.975 385.803L530.61 413.513C533.593 416.4 538.371 416.379 541.289 413.464C541.456 413.294 541.608 413.125 541.76 412.949L504.972 378.285L504.965 378.278Z" fill="#2E83FF" fill-opacity="0.7"/>
<path d="M504.965 378.278L501.823 375.321C500.744 376.415 500.078 377.749 499.817 379.147C501.512 379.979 503.597 379.669 504.965 378.278Z" fill="#2E83FF" fill-opacity="0.8"/>
<path d="M501.823 375.321L504.965 378.278C505.009 378.229 505.067 378.194 505.11 378.144C506.363 376.747 506.522 374.792 505.696 373.239C504.277 373.521 502.931 374.206 501.845 375.293C501.837 375.3 501.83 375.314 501.823 375.321Z" fill="#2E83FF" fill-opacity="0.6"/>
</g>
<g clip-path="url(#clip1_2_412)">
<path d="M329.63 259V227.04L343.937 234.254L352.998 229.317L322 214.085L322.683 254.173L329.63 259Z" fill="#62A2FF"/>
<path d="M329.63 227.04V259L365.102 237.337L365.556 229.365L337.351 246.686V230.886L329.63 227.04Z" fill="#2E83FF"/>
<path d="M337.351 237.764L352.997 229.317L322 214.085L328.426 211L365.556 229.365L337.351 246.686V237.764Z" fill="#A3C8FF"/>
</g>
<g clip-path="url(#clip2_2_412)">
<path d="M383.223 217.069C384.079 217.157 389.777 217.817 400.316 219.072V224.307C400.316 224.459 400.316 224.7 400.291 225.004C395.973 227.844 393.597 229.403 393.162 229.669L389.968 229.314V229.352H389.994C390.275 229.377 393.022 229.707 398.221 230.328C398.234 230.353 398.247 230.379 398.247 230.391C398.247 231.165 398.247 233.142 398.221 236.337C395.155 238.352 392.779 239.899 391.093 241.002C390.364 240.913 389.981 240.875 389.943 240.875V243.258C389.943 244.272 389.943 245.654 389.917 247.416C385.216 250.509 382.84 252.055 382.789 252.055H382.763C382.418 252.043 380.17 251.776 376.005 251.269V251.244C376.018 244.868 376.031 235.031 376.044 221.721C380.604 218.755 382.993 217.195 383.223 217.069ZM376.734 222.469C376.734 227.932 376.708 237.325 376.67 250.686L382.201 251.345C382.214 250.724 382.227 250.243 382.227 249.888V242.548C382.227 241.813 382.227 240.748 382.252 239.341L382.278 239.316C387.298 239.899 390.032 240.216 390.492 240.266C390.505 238.859 390.518 237.845 390.518 237.211V235.614C390.518 235.614 390.198 235.538 389.56 235.487L382.265 234.625V227.742H382.291C382.418 227.755 385.855 228.16 392.587 228.946V224.32C391.974 224.269 386.698 223.648 376.772 222.481L376.734 222.469Z" fill="#2E83FF"/>
<path d="M406.653 216.333C411.06 216.84 413.347 217.119 413.5 217.157V217.183C413.5 223.381 413.487 231.203 413.462 240.621C421.305 241.547 425.393 242.041 425.751 242.079V248.113C421.638 250.838 419.261 252.398 418.623 252.778C406.601 251.383 400.214 250.636 399.46 250.547V250.521C399.46 244.221 399.473 234.385 399.499 221.024C404.046 218.019 406.423 216.46 406.653 216.333ZM400.15 221.734C400.15 226.538 400.137 235.944 400.112 249.951C411.507 251.307 417.473 251.992 418.022 252.043L418.048 247.314C410.012 246.389 405.912 245.895 405.733 245.857C405.758 235.893 405.771 228.072 405.771 222.393H405.745L400.15 221.734Z" fill="#2E83FF"/>
<path d="M440.034 216.688H440.519C442.103 216.688 443.802 217.043 445.603 217.741C447.954 218.767 449.653 220.415 450.688 222.697C451.467 224.586 451.863 226.753 451.863 229.2V237.173C451.863 241.014 451.135 243.714 449.679 245.273C449.027 245.945 448.554 246.338 448.273 246.452C443.623 249.533 441.056 251.206 440.57 251.472C439.28 252.093 437.977 252.398 436.661 252.398H435.958C433.927 252.398 431.947 251.878 430.031 250.838C428.089 249.736 426.696 248.075 425.866 245.857C425.227 243.917 424.908 241.787 424.908 239.48V231.799C424.908 228.756 425.355 226.513 426.249 225.067C426.888 223.863 427.936 222.836 429.392 222.012C433.531 219.262 435.818 217.766 436.239 217.538C437.415 216.955 438.679 216.676 440.046 216.676L440.034 216.688ZM425.534 231.355V239.392C425.534 241.699 425.841 243.816 426.454 245.743C427.246 247.872 428.689 249.469 430.797 250.547C432.484 251.345 434.234 251.751 436.048 251.751H436.329C439.267 251.751 441.413 250.661 442.767 248.481C443.023 248.088 443.291 247.466 443.572 246.63C443.943 245.197 444.122 243.727 444.122 242.244C444.134 239.049 444.147 236.501 444.147 234.587C444.147 230.468 443.393 227.514 441.873 225.727C441.145 224.852 440.506 224.243 439.944 223.914C439.446 223.559 438.807 223.229 438.028 222.9C436.393 222.329 434.847 222.038 433.365 222.038H433.046C430.555 222.038 428.625 222.925 427.284 224.7C426.122 226.259 425.547 228.49 425.547 231.368L425.534 231.355ZM434.144 226.753H434.438C435.601 226.753 436.584 227.134 437.389 227.894C438.066 228.579 438.411 229.783 438.411 231.482C438.398 235.868 438.386 239.328 438.386 241.838C438.386 243.765 438.207 245.045 437.836 245.679C437.325 246.655 436.508 247.137 435.371 247.137H435.332C433.838 247.137 432.726 246.592 431.998 245.489C431.41 244.576 431.129 243.195 431.129 241.357C431.142 240.279 431.155 239.404 431.155 238.745V231.799C431.155 230.087 431.295 228.972 431.576 228.49C431.832 227.844 432.279 227.349 432.918 227.007C433.352 226.842 433.774 226.753 434.157 226.753H434.144ZM431.768 240.761V241.204L437.785 237.3V236.793C434.425 238.986 432.42 240.304 431.768 240.761ZM444.76 241.673H444.786C448.516 239.24 450.662 237.82 451.224 237.427V237.009L451.25 236.97H451.224L444.76 241.217V241.686V241.673Z" fill="#2E83FF"/>
<path d="M467.155 217.094C471.575 217.601 473.823 217.867 473.874 217.893V217.918C473.874 223.153 473.862 230.848 473.836 241.027C473.836 242.003 473.619 243.042 473.172 244.171C472.916 244.728 472.52 245.286 471.984 245.844C471.537 246.237 470.834 246.719 469.901 247.302C466.056 249.85 463.987 251.193 463.667 251.358C462.684 251.827 461.649 252.055 460.563 252.055H460.116C459.247 252.055 458.123 251.903 456.718 251.612C456.002 251.396 455.415 251.168 454.955 250.889C452.336 249.343 451.02 246.757 451.02 243.119V241.661C451.02 240.849 451.058 240.431 451.148 240.431L458.187 235.855C458.417 235.868 459.017 235.931 460.014 236.045V221.759C464.587 218.742 466.976 217.195 467.155 217.094ZM460.665 222.469C460.665 222.989 460.665 224.231 460.64 226.183C460.627 233.32 460.614 239.265 460.614 244.019C460.614 245.235 460.41 246.021 460.014 246.376C459.707 246.706 459.247 246.858 458.634 246.858C457.893 246.858 457.267 246.617 456.769 246.123C456.398 245.704 456.168 245.121 456.066 244.386C456.015 243.828 455.977 243.157 455.977 242.383V241.711C453.294 241.42 451.85 241.242 451.633 241.204C451.62 241.458 451.608 241.648 451.608 241.775V242.814C451.608 245.071 452.004 246.795 452.783 247.986C453.588 249.292 454.776 250.243 456.36 250.813C456.73 250.965 457.561 251.13 458.851 251.295C459.362 251.345 459.758 251.383 460.039 251.383H460.461C461.981 251.383 463.258 250.952 464.293 250.09C465.469 249.038 466.056 247.365 466.056 245.083C466.069 244.45 466.082 243.828 466.082 243.207C466.094 235.69 466.107 229.529 466.107 224.7C466.12 223.85 466.133 223.331 466.133 223.115C466.12 223.103 464.293 222.887 460.665 222.456V222.469ZM456.628 241.318V241.471H456.654C458.596 240.203 459.72 239.468 460.014 239.252V239.125H459.988C458.008 240.418 456.884 241.154 456.628 241.318ZM466.733 244.754V245.197L473.172 240.951V240.507C469.403 242.966 467.257 244.386 466.733 244.754Z" fill="#2E83FF"/>
<path d="M488.157 216.688H488.643C490.227 216.688 491.926 217.043 493.727 217.741C496.078 218.767 497.777 220.415 498.811 222.697C499.591 224.586 499.987 226.753 499.987 229.2V237.173C499.987 241.014 499.259 243.714 497.802 245.273C497.151 245.945 496.678 246.338 496.397 246.452C491.747 249.533 489.179 251.206 488.694 251.472C487.403 252.093 486.1 252.398 484.784 252.398H484.082C482.051 252.398 480.071 251.878 478.154 250.838C476.212 249.736 474.82 248.075 473.99 245.857C473.351 243.917 473.031 241.787 473.031 239.48V231.799C473.031 228.756 473.479 226.513 474.373 225.067C475.012 223.863 476.059 222.836 477.516 222.012C481.655 219.262 483.941 217.766 484.363 217.538C485.538 216.955 486.803 216.676 488.17 216.676L488.157 216.688ZM473.657 231.355V239.392C473.657 241.699 473.964 243.816 474.577 245.743C475.369 247.872 476.813 249.469 478.921 250.547C480.607 251.345 482.357 251.751 484.171 251.751H484.452C487.391 251.751 489.537 250.661 490.891 248.481C491.146 248.088 491.415 247.466 491.696 246.63C492.066 245.197 492.245 243.727 492.245 242.244C492.258 239.049 492.271 236.501 492.271 234.587C492.271 230.468 491.517 227.514 489.997 225.727C489.268 224.852 488.63 224.243 488.068 223.914C487.569 223.559 486.931 223.229 486.151 222.9C484.516 222.329 482.97 222.038 481.489 222.038H481.169C478.678 222.038 476.749 222.925 475.408 224.7C474.245 226.259 473.67 228.49 473.67 231.368L473.657 231.355ZM482.268 226.753H482.562C483.724 226.753 484.708 227.134 485.513 227.894C486.19 228.579 486.535 229.783 486.535 231.482C486.522 235.868 486.509 239.328 486.509 241.838C486.509 243.765 486.33 245.045 485.96 245.679C485.449 246.655 484.631 247.137 483.494 247.137H483.456C481.961 247.137 480.85 246.592 480.122 245.489C479.534 244.576 479.253 243.195 479.253 241.357C479.266 240.279 479.278 239.404 479.278 238.745V231.799C479.278 230.087 479.419 228.972 479.7 228.49C479.956 227.844 480.403 227.349 481.041 227.007C481.476 226.842 481.897 226.753 482.281 226.753H482.268ZM479.892 240.761V241.204L485.909 237.3V236.793C482.549 238.986 480.543 240.304 479.892 240.761ZM492.884 241.673H492.909C496.64 239.24 498.786 237.82 499.348 237.427V237.009L499.374 236.97H499.348L492.884 241.217V241.686V241.673Z" fill="#2E83FF"/>
<path d="M506.259 216.549C507.537 216.688 509.964 216.967 513.528 217.398C513.605 217.512 514.525 219.49 516.287 223.343H516.313C516.313 223.242 516.492 223.103 516.862 222.9C521.027 220.162 523.237 218.717 523.48 218.577C527.606 219.046 530.008 219.325 530.685 219.426C525.013 230.328 522.138 235.88 522.049 236.096V236.983C522.049 239.759 522.049 243.41 522.023 247.961C517.667 250.813 515.291 252.36 514.895 252.6H514.869C513.732 252.486 511.471 252.233 508.086 251.814L508.112 242.51V240.19C508.035 240.025 505.608 234.879 500.791 224.763C499.667 222.431 499.118 221.239 499.118 221.201C503.474 218.349 505.85 216.802 506.246 216.562L506.259 216.549ZM500.178 221.974V222.012L508.776 240.051L508.75 251.231L514.282 251.865C514.295 251.65 514.307 251.498 514.307 251.396V242.941C514.307 242.345 514.307 241.521 514.333 240.456C519.813 229.922 522.56 224.636 522.56 224.611L516.773 223.914C513.758 229.986 512.11 233.32 511.842 233.89C511.803 234.004 511.752 234.055 511.714 234.055C511.318 234.055 511.114 234.004 511.114 233.89C510.028 231.253 508.712 228.338 507.179 225.118C506.464 223.559 506.093 222.735 506.029 222.672L500.178 221.974ZM510.002 229.783L510.041 229.872C512.596 228.211 514.09 227.222 514.55 226.918C514.55 226.893 514.576 226.829 514.614 226.753H514.588C512.021 228.427 510.488 229.428 509.989 229.77V229.796L510.002 229.783Z" fill="#2E83FF"/>
</g>
<rect x="0.5" y="121.662" width="136.558" height="134.711" rx="12.5" fill="#2E83FF" fill-opacity="0.2" stroke="#2E83FF"/>
<rect x="134" y="211" width="7" height="7" rx="2" fill="#2E83FF"/>
<rect x="134.865" y="231.87" width="7.38565" height="7.38565" rx="2" fill="#2E83FF"/>
<path d="M91.9453 220.522H86.374V210.528H91.9453V211.56H87.5361V214.78H91.6787V215.806H87.5361V219.483H91.9453V220.522ZM99.123 220.522V215.676C99.123 215.065 98.984 214.609 98.7061 214.309C98.4281 214.008 97.9928 213.857 97.4004 213.857C96.6165 213.857 96.0423 214.069 95.6777 214.493C95.3132 214.917 95.1309 215.616 95.1309 216.592V220.522H93.9961V213.03H94.9189L95.1035 214.056H95.1582C95.3906 213.686 95.7165 213.402 96.1357 213.201C96.555 212.996 97.0221 212.893 97.5371 212.893C98.4395 212.893 99.1185 213.112 99.5742 213.55C100.03 213.983 100.258 214.678 100.258 215.635V220.522H99.123ZM107.695 219.518H107.634C107.11 220.279 106.326 220.659 105.282 220.659C104.302 220.659 103.539 220.324 102.992 219.654C102.45 218.984 102.179 218.032 102.179 216.797C102.179 215.562 102.452 214.602 102.999 213.919C103.546 213.235 104.307 212.893 105.282 212.893C106.299 212.893 107.078 213.263 107.62 214.001H107.709L107.661 213.461L107.634 212.935V209.886H108.769V220.522H107.846L107.695 219.518ZM105.426 219.709C106.201 219.709 106.761 219.499 107.107 219.08C107.458 218.656 107.634 217.975 107.634 217.036V216.797C107.634 215.735 107.456 214.978 107.101 214.527C106.75 214.072 106.187 213.844 105.412 213.844C104.747 213.844 104.236 214.103 103.881 214.623C103.53 215.138 103.354 215.867 103.354 216.81C103.354 217.768 103.53 218.49 103.881 218.977C104.232 219.465 104.747 219.709 105.426 219.709Z" fill="#2E83FF"/>
<path d="M86.6333 230.981H89.4565C90.7827 230.981 91.742 231.179 92.3345 231.576C92.9269 231.972 93.2231 232.599 93.2231 233.456C93.2231 234.048 93.0568 234.538 92.7241 234.925C92.396 235.308 91.9152 235.557 91.2817 235.67V235.739C92.7993 235.999 93.5581 236.796 93.5581 238.131C93.5581 239.025 93.255 239.722 92.6489 240.223C92.0474 240.725 91.2043 240.975 90.1196 240.975H86.6333V230.981ZM87.7954 235.26H89.7095C90.5298 235.26 91.12 235.133 91.48 234.878C91.84 234.618 92.02 234.183 92.02 233.572C92.02 233.011 91.8195 232.608 91.4185 232.362C91.0174 232.111 90.3794 231.986 89.5044 231.986H87.7954V235.26ZM87.7954 236.245V239.984H89.8804C90.687 239.984 91.2931 239.829 91.6987 239.519C92.1089 239.205 92.314 238.715 92.314 238.049C92.314 237.43 92.1043 236.974 91.6851 236.682C91.2703 236.391 90.6369 236.245 89.7847 236.245H87.7954ZM102.007 237.222C102.007 238.444 101.7 239.398 101.084 240.086C100.469 240.77 99.6193 241.112 98.5347 241.112C97.8647 241.112 97.27 240.955 96.7505 240.64C96.231 240.326 95.8299 239.875 95.5474 239.287C95.2648 238.699 95.1235 238.011 95.1235 237.222C95.1235 236.001 95.4289 235.051 96.0396 234.372C96.6502 233.688 97.4979 233.346 98.5825 233.346C99.6307 233.346 100.462 233.695 101.078 234.392C101.697 235.089 102.007 236.033 102.007 237.222ZM96.2993 237.222C96.2993 238.179 96.4907 238.908 96.8735 239.41C97.2563 239.911 97.8192 240.162 98.562 240.162C99.3049 240.162 99.8677 239.913 100.25 239.417C100.638 238.915 100.832 238.184 100.832 237.222C100.832 236.27 100.638 235.547 100.25 235.055C99.8677 234.558 99.3003 234.31 98.5483 234.31C97.8055 234.31 97.245 234.554 96.8667 235.042C96.4884 235.529 96.2993 236.256 96.2993 237.222ZM109.103 239.97H109.042C108.517 240.731 107.734 241.112 106.69 241.112C105.71 241.112 104.947 240.777 104.4 240.107C103.858 239.437 103.586 238.485 103.586 237.25C103.586 236.015 103.86 235.055 104.407 234.372C104.954 233.688 105.715 233.346 106.69 233.346C107.706 233.346 108.486 233.715 109.028 234.454H109.117L109.069 233.914L109.042 233.387V230.338H110.176V240.975H109.253L109.103 239.97ZM106.833 240.162C107.608 240.162 108.169 239.952 108.515 239.533C108.866 239.109 109.042 238.428 109.042 237.489V237.25C109.042 236.188 108.864 235.431 108.508 234.98C108.157 234.524 107.595 234.296 106.82 234.296C106.154 234.296 105.644 234.556 105.289 235.076C104.938 235.591 104.762 236.32 104.762 237.263C104.762 238.22 104.938 238.943 105.289 239.43C105.639 239.918 106.154 240.162 106.833 240.162ZM111.4 233.483H112.617L114.257 237.755C114.617 238.731 114.841 239.435 114.927 239.868H114.982C115.041 239.635 115.164 239.239 115.351 238.678C115.542 238.113 116.162 236.381 117.21 233.483H118.427L115.208 242.014C114.889 242.857 114.515 243.454 114.086 243.805C113.663 244.161 113.141 244.338 112.521 244.338C112.175 244.338 111.833 244.3 111.496 244.222V243.313C111.746 243.368 112.027 243.395 112.336 243.395C113.116 243.395 113.672 242.958 114.004 242.083L114.421 241.016L111.4 233.483Z" fill="#2E83FF"/>
<path d="M40.6242 166.628V152.351H43.6515V164.128H49.4425V166.628H40.6242ZM66.2918 159.47C66.2918 161.833 65.7058 163.649 64.5339 164.919C63.3621 166.188 61.6824 166.823 59.4949 166.823C57.3074 166.823 55.6277 166.188 54.4558 164.919C53.2839 163.649 52.698 161.826 52.698 159.45C52.698 157.074 53.2839 155.261 54.4558 154.011C55.6342 152.754 57.3204 152.126 59.5144 152.126C61.7084 152.126 63.3849 152.757 64.5437 154.02C65.7091 155.283 66.2918 157.1 66.2918 159.47ZM55.8718 159.47C55.8718 161.065 56.1746 162.266 56.78 163.073C57.3855 163.88 58.2904 164.284 59.4949 164.284C61.9102 164.284 63.1179 162.679 63.1179 159.47C63.1179 156.254 61.9168 154.645 59.5144 154.645C58.31 154.645 57.4018 155.052 56.7898 155.866C56.1778 156.673 55.8718 157.875 55.8718 159.47ZM83.6097 159.47C83.6097 161.833 83.0238 163.649 81.8519 164.919C80.68 166.188 79.0003 166.823 76.8128 166.823C74.6253 166.823 72.9457 166.188 71.7738 164.919C70.6019 163.649 70.016 161.826 70.016 159.45C70.016 157.074 70.6019 155.261 71.7738 154.011C72.9522 152.754 74.6384 152.126 76.8324 152.126C79.0264 152.126 80.7028 152.757 81.8617 154.02C83.027 155.283 83.6097 157.1 83.6097 159.47ZM73.1898 159.47C73.1898 161.065 73.4925 162.266 74.098 163.073C74.7035 163.88 75.6084 164.284 76.8128 164.284C79.2282 164.284 80.4359 162.679 80.4359 159.47C80.4359 156.254 79.2347 154.645 76.8324 154.645C75.6279 154.645 74.7197 155.052 74.1078 155.866C73.4958 156.673 73.1898 157.875 73.1898 159.47ZM90.996 159.069H91.9921C92.9231 159.069 93.6197 158.887 94.082 158.522C94.5442 158.151 94.7753 157.614 94.7753 156.911C94.7753 156.201 94.58 155.677 94.1894 155.339C93.8053 155 93.1998 154.831 92.373 154.831H90.996V159.069ZM97.832 156.804C97.832 158.34 97.3502 159.515 96.3867 160.329C95.4296 161.143 94.0657 161.55 92.2949 161.55H90.996V166.628H87.9687V152.351H92.5293C94.261 152.351 95.5761 152.725 96.4746 153.474C97.3795 154.216 97.832 155.326 97.832 156.804Z" fill="#2E83FF"/>
<path d="M224.339 63.0137H180.415C179.009 62.8815 176.197 63.6484 176.197 67.7736C176.197 71.8988 176.197 162.838 176.197 207.793C176.197 210.305 174.992 215.329 170.172 215.329C165.352 215.329 148.883 215.329 141.251 215.329" stroke="#BCC2C4"/>
<path d="M272.346 207.949L203.401 207.949C202.463 207.896 200.586 208.203 200.586 209.853C200.586 211.503 200.586 247.879 200.586 265.861C200.586 266.865 199.781 268.875 196.563 268.875C193.345 268.875 182.351 268.875 177.256 268.875" stroke="#BCC2C4"/>
<path d="M272.346 333.491L180.731 333.491C179.347 333.576 176.578 333.083 176.578 330.433C176.578 327.783 176.578 269.361 176.578 240.481C176.578 238.867 175.392 235.64 170.647 235.64C165.901 235.64 149.687 235.64 142.174 235.64" stroke="#BCC2C4"/>
<path d="M231 0.5H344C347.038 0.5 349.5 2.96243 349.5 6V119.796C349.5 122.834 347.038 125.296 344 125.296H231C227.962 125.296 225.5 122.834 225.5 119.796V6C225.5 2.96244 227.962 0.5 231 0.5Z" fill="#7B61FF" fill-opacity="0.2" stroke="#7B61FF"/>
<path d="M261.713 31.2559C261.713 32.1582 261.387 32.8691 260.735 33.3887C260.088 33.9082 259.186 34.168 258.028 34.168C256.962 34.168 256.018 33.9674 255.198 33.5664V31.5977C255.873 31.8984 256.442 32.1104 256.907 32.2334C257.377 32.3564 257.805 32.418 258.192 32.418C258.657 32.418 259.013 32.3291 259.259 32.1514C259.509 31.9736 259.635 31.7093 259.635 31.3584C259.635 31.1624 259.58 30.9893 259.471 30.8389C259.361 30.6839 259.199 30.5358 258.985 30.3945C258.776 30.2533 258.345 30.0277 257.693 29.7178C257.083 29.4307 256.625 29.1549 256.319 28.8906C256.014 28.6263 255.77 28.3187 255.588 27.9678C255.406 27.6169 255.314 27.2067 255.314 26.7373C255.314 25.8532 255.613 25.1582 256.21 24.6523C256.811 24.1465 257.641 23.8936 258.698 23.8936C259.218 23.8936 259.712 23.9551 260.182 24.0781C260.656 24.2012 261.15 24.3743 261.665 24.5977L260.981 26.2451C260.448 26.0264 260.006 25.8737 259.655 25.7871C259.309 25.7005 258.967 25.6572 258.63 25.6572C258.229 25.6572 257.921 25.7507 257.707 25.9375C257.493 26.1243 257.386 26.3682 257.386 26.6689C257.386 26.8558 257.429 27.0199 257.516 27.1611C257.602 27.2979 257.739 27.4323 257.926 27.5645C258.117 27.6921 258.566 27.9245 259.272 28.2617C260.207 28.7083 260.847 29.1572 261.193 29.6084C261.54 30.055 261.713 30.6042 261.713 31.2559ZM268.749 25.6572C267.952 25.6572 267.334 25.958 266.897 26.5596C266.459 27.1566 266.241 27.9906 266.241 29.0615C266.241 31.29 267.077 32.4043 268.749 32.4043C269.451 32.4043 270.301 32.2288 271.299 31.8779V33.6553C270.479 33.9971 269.563 34.168 268.551 34.168C267.097 34.168 265.985 33.7282 265.215 32.8486C264.445 31.9645 264.06 30.6976 264.06 29.0479C264.06 28.0088 264.249 27.0996 264.627 26.3203C265.006 25.5365 265.548 24.9372 266.254 24.5225C266.965 24.1032 267.797 23.8936 268.749 23.8936C269.72 23.8936 270.695 24.1283 271.675 24.5977L270.992 26.3203C270.618 26.1426 270.242 25.9876 269.864 25.8555C269.485 25.7233 269.114 25.6572 268.749 25.6572ZM280.53 34.0312L279.806 31.6523H276.162L275.437 34.0312H273.154L276.682 23.9961H279.272L282.813 34.0312H280.53ZM279.3 29.875C278.63 27.7194 278.252 26.5003 278.165 26.2178C278.083 25.9352 278.024 25.7119 277.987 25.5479C277.837 26.1312 277.406 27.5736 276.695 29.875H279.3ZM288.914 34.0312H286.794V25.8008H284.081V24.0371H291.627V25.8008H288.914V34.0312ZM298.001 34.0312H295.882V25.8008H293.168V24.0371H300.715V25.8008H298.001V34.0312ZM308.989 34.0312H303.233V24.0371H308.989V25.7734H305.352V27.9678H308.736V29.7041H305.352V32.2812H308.989V34.0312ZM314.18 28.4736H314.863C315.533 28.4736 316.028 28.362 316.347 28.1387C316.666 27.9154 316.825 27.5645 316.825 27.0859C316.825 26.612 316.661 26.2747 316.333 26.0742C316.009 25.8737 315.506 25.7734 314.822 25.7734H314.18V28.4736ZM314.18 30.1963V34.0312H312.061V24.0371H314.973C316.331 24.0371 317.336 24.2855 317.987 24.7822C318.639 25.2744 318.965 26.0241 318.965 27.0312C318.965 27.6191 318.803 28.1432 318.48 28.6035C318.156 29.0592 317.698 29.417 317.106 29.6768C318.609 31.9235 319.589 33.375 320.045 34.0312H317.693L315.308 30.1963H314.18Z" fill="#7B61FF"/>
<g clip-path="url(#clip3_2_412)">
<path d="M294.898 89.8937C296.931 89.8937 298.579 88.2458 298.579 86.2129C298.579 84.1801 296.931 82.5321 294.898 82.5321C292.865 82.5321 291.217 84.1801 291.217 86.2129C291.217 88.2458 292.865 89.8937 294.898 89.8937Z" fill="#7B61FF"/>
<path d="M300.624 85.804C302.657 85.804 304.305 84.156 304.305 82.1232C304.305 80.0903 302.657 78.4424 300.624 78.4424C298.591 78.4424 296.943 80.0903 296.943 82.1232C296.943 84.156 298.591 85.804 300.624 85.804Z" fill="#7B61FF"/>
<path d="M300.624 93.9835C302.657 93.9835 304.305 92.3355 304.305 90.3027C304.305 88.2699 302.657 86.6219 300.624 86.6219C298.591 86.6219 296.943 88.2699 296.943 90.3027C296.943 92.3355 298.591 93.9835 300.624 93.9835Z" fill="#7B61FF"/>
<path d="M303.896 93.9835C305.929 93.9835 307.577 92.3355 307.577 90.3027C307.577 88.2699 305.929 86.6219 303.896 86.6219C301.863 86.6219 300.215 88.2699 300.215 90.3027C300.215 92.3355 301.863 93.9835 303.896 93.9835Z" fill="#7B61FF"/>
<path opacity="0.9" d="M315.937 83.7182C317.97 83.7182 319.618 82.0702 319.618 80.0374C319.618 78.0045 317.97 76.3566 315.937 76.3566C313.904 76.3566 312.256 78.0045 312.256 80.0374C312.256 82.0702 313.904 83.7182 315.937 83.7182Z" fill="#7B61FF"/>
<path opacity="0.9" d="M298.988 80.0783C301.021 80.0783 302.669 78.4303 302.669 76.3975C302.669 74.3646 301.021 72.7167 298.988 72.7167C296.955 72.7167 295.307 74.3646 295.307 76.3975C295.307 78.4303 296.955 80.0783 298.988 80.0783Z" fill="#7B61FF"/>
<path opacity="0.75" d="M296.534 74.3526C298.567 74.3526 300.215 72.7046 300.215 70.6718C300.215 68.6389 298.567 66.991 296.534 66.991C294.501 66.991 292.853 68.6389 292.853 70.6718C292.853 72.7046 294.501 74.3526 296.534 74.3526Z" fill="#7B61FF"/>
<path opacity="0.75" d="M298.988 70.2628C301.021 70.2628 302.669 68.6149 302.669 66.582C302.669 64.5492 301.021 62.9012 298.988 62.9012C296.955 62.9012 295.307 64.5492 295.307 66.582C295.307 68.6149 296.955 70.2628 298.988 70.2628Z" fill="#7B61FF"/>
<path opacity="0.59" d="M303.078 66.991C305.111 66.991 306.759 65.3431 306.759 63.3102C306.759 61.2774 305.111 59.6294 303.078 59.6294C301.045 59.6294 299.397 61.2774 299.397 63.3102C299.397 65.3431 301.045 66.991 303.078 66.991Z" fill="#7B61FF"/>
<path opacity="0.59" d="M258.677 93.5336C260.71 93.5336 262.358 91.8857 262.358 89.8528C262.358 87.82 260.71 86.172 258.677 86.172C256.644 86.172 254.996 87.82 254.996 89.8528C254.996 91.8857 256.644 93.5336 258.677 93.5336Z" fill="#7B61FF"/>
<path opacity="0.59" d="M269.212 87.5353C271.245 87.5353 272.893 85.8873 272.893 83.8545C272.893 81.8217 271.245 80.1737 269.212 80.1737C267.18 80.1737 265.531 81.8217 265.531 83.8545C265.531 85.8873 267.18 87.5353 269.212 87.5353Z" fill="#7B61FF"/>
<path opacity="0.59" d="M272.812 73.5346C274.845 73.5346 276.493 71.8867 276.493 69.8538C276.493 67.821 274.845 66.173 272.812 66.173C270.779 66.173 269.131 67.821 269.131 69.8538C269.131 71.8867 270.779 73.5346 272.812 73.5346Z" fill="#7B61FF"/>
<path opacity="0.59" d="M280.174 93.1655C282.207 93.1655 283.855 91.5176 283.855 89.4847C283.855 87.4519 282.207 85.804 280.174 85.804C278.141 85.804 276.493 87.4519 276.493 89.4847C276.493 91.5176 278.141 93.1655 280.174 93.1655Z" fill="#7B61FF"/>
<path opacity="0.59" d="M283.446 89.8937C285.479 89.8937 287.127 88.2458 287.127 86.2129C287.127 84.1801 285.479 82.5321 283.446 82.5321C281.413 82.5321 279.765 84.1801 279.765 86.2129C279.765 88.2458 281.413 89.8937 283.446 89.8937Z" fill="#7B61FF"/>
<path opacity="0.59" d="M288.354 89.8937C290.387 89.8937 292.035 88.2458 292.035 86.2129C292.035 84.1801 290.387 82.5321 288.354 82.5321C286.321 82.5321 284.673 84.1801 284.673 86.2129C284.673 88.2458 286.321 89.8937 288.354 89.8937Z" fill="#7B61FF"/>
<path opacity="0.59" d="M283.446 66.991C285.479 66.991 287.127 65.3431 287.127 63.3102C287.127 61.2774 285.479 59.6294 283.446 59.6294C281.413 59.6294 279.765 61.2774 279.765 63.3102C279.765 65.3431 281.413 66.991 283.446 66.991Z" fill="#7B61FF"/>
<path opacity="0.59" d="M240.681 82.9002C242.714 82.9002 244.362 81.2523 244.362 79.2194C244.362 77.1866 242.714 75.5386 240.681 75.5386C238.648 75.5386 237 77.1866 237 79.2194C237 81.2523 238.648 82.9002 240.681 82.9002Z" fill="#7B61FF"/>
<path opacity="0.59" d="M280.763 102.531C282.796 102.531 284.444 100.883 284.444 98.8503C284.444 96.8175 282.796 95.1695 280.763 95.1695C278.73 95.1695 277.082 96.8175 277.082 98.8503C277.082 100.883 278.73 102.531 280.763 102.531Z" fill="#7B61FF"/>
<path opacity="0.59" d="M255.313 74.4071C257.346 74.4071 258.994 72.7592 258.994 70.7263C258.994 68.6935 257.346 67.0455 255.313 67.0455C253.28 67.0455 251.632 68.6935 251.632 70.7263C251.632 72.7592 253.28 74.4071 255.313 74.4071Z" fill="#7B61FF"/>
<path opacity="0.59" d="M275.797 70.7604C277.83 70.7604 279.478 69.1125 279.478 67.0796C279.478 65.0468 277.83 63.3988 275.797 63.3988C273.764 63.3988 272.116 65.0468 272.116 67.0796C272.116 69.1125 273.764 70.7604 275.797 70.7604Z" fill="#7B61FF"/>
<path opacity="0.59" d="M254.587 70.6309C256.62 70.6309 258.268 68.983 258.268 66.9501C258.268 64.9173 256.62 63.2693 254.587 63.2693C252.554 63.2693 250.906 64.9173 250.906 66.9501C250.906 68.983 252.554 70.6309 254.587 70.6309Z" fill="#7B61FF"/>
<path opacity="0.59" d="M296.534 107.889C298.567 107.889 300.215 106.241 300.215 104.208C300.215 102.175 298.567 100.527 296.534 100.527C294.501 100.527 292.853 102.175 292.853 104.208C292.853 106.241 294.501 107.889 296.534 107.889Z" fill="#7B61FF"/>
<path opacity="0.59" d="M323.642 87.4971C325.675 87.4971 327.323 85.8492 327.323 83.8163C327.323 81.7835 325.675 80.1355 323.642 80.1355C321.609 80.1355 319.961 81.7835 319.961 83.8163C319.961 85.8492 321.609 87.4971 323.642 87.4971Z" fill="#7B61FF"/>
<path opacity="0.59" d="M334.276 80.9535C336.309 80.9535 337.957 79.3055 337.957 77.2727C337.957 75.2398 336.309 73.5919 334.276 73.5919C332.243 73.5919 330.595 75.2398 330.595 77.2727C330.595 79.3055 332.243 80.9535 334.276 80.9535Z" fill="#7B61FF"/>
<path opacity="0.59" d="M307.863 72.3323C309.896 72.3323 311.544 70.6843 311.544 68.6515C311.544 66.6186 309.896 64.9707 307.863 64.9707C305.83 64.9707 304.182 66.6186 304.182 68.6515C304.182 70.6843 305.83 72.3323 307.863 72.3323Z" fill="#7B61FF"/>
<path opacity="0.59" d="M323.299 91.0798C325.332 91.0798 326.98 89.4318 326.98 87.399C326.98 85.3661 325.332 83.7182 323.299 83.7182C321.266 83.7182 319.618 85.3661 319.618 87.399C319.618 89.4318 321.266 91.0798 323.299 91.0798Z" fill="#7B61FF"/>
<path opacity="0.59" d="M305.409 84.6016C307.442 84.6016 309.09 82.9536 309.09 80.9208C309.09 78.8879 307.442 77.24 305.409 77.24C303.376 77.24 301.728 78.8879 301.728 80.9208C301.728 82.9536 303.376 84.6016 305.409 84.6016Z" fill="#7B61FF"/>
<path opacity="0.59" d="M295.266 97.6479C297.299 97.6479 298.947 96 298.947 93.9671C298.947 91.9343 297.299 90.2863 295.266 90.2863C293.233 90.2863 291.585 91.9343 291.585 93.9671C291.585 96 293.233 97.6479 295.266 97.6479Z" fill="#7B61FF"/>
<path opacity="0.59" d="M298.538 100.92C300.571 100.92 302.219 99.2718 302.219 97.2389C302.219 95.2061 300.571 93.5582 298.538 93.5582C296.505 93.5582 294.857 95.2061 294.857 97.2389C294.857 99.2718 296.505 100.92 298.538 100.92Z" fill="#7B61FF"/>
<path opacity="0.59" d="M316.763 97.2798C318.796 97.2798 320.444 95.6319 320.444 93.5991C320.444 91.5662 318.796 89.9183 316.763 89.9183C314.73 89.9183 313.082 91.5662 313.082 93.5991C313.082 95.6319 314.73 97.2798 316.763 97.2798Z" fill="#7B61FF"/>
<path opacity="0.59" d="M320.035 94.008C322.068 94.008 323.716 92.3601 323.716 90.3272C323.716 88.2944 322.068 86.6465 320.035 86.6465C318.002 86.6465 316.354 88.2944 316.354 90.3272C316.354 92.3601 318.002 94.008 320.035 94.008Z" fill="#7B61FF"/>
<path opacity="0.59" d="M324.943 94.008C326.976 94.008 328.624 92.3601 328.624 90.3272C328.624 88.2944 326.976 86.6465 324.943 86.6465C322.91 86.6465 321.262 88.2944 321.262 90.3272C321.262 92.3601 322.91 94.008 324.943 94.008Z" fill="#7B61FF"/>
<path opacity="0.59" d="M317.352 106.645C319.385 106.645 321.033 104.997 321.033 102.965C321.033 100.932 319.385 99.2838 317.352 99.2838C315.319 99.2838 313.671 100.932 313.671 102.965C313.671 104.997 315.319 106.645 317.352 106.645Z" fill="#7B61FF"/>
</g>
<defs>
<clipPath id="clip0_2_412">
<rect width="109.08" height="106.601" fill="white" transform="translate(434.352 309.065)"/>
</clipPath>
<clipPath id="clip1_2_412">
<rect width="43.5556" height="48" fill="white" transform="matrix(-1 0 0 1 365.556 211)"/>
</clipPath>
<clipPath id="clip2_2_412">
<rect width="154.667" height="36.4444" fill="white" transform="translate(376.031 216.333)"/>
</clipPath>
<clipPath id="clip3_2_412">
<rect width="100.957" height="56.8887" fill="white" transform="translate(237 51)"/>
</clipPath>
</defs>
</svg>
