<svg xmlns="http://www.w3.org/2000/svg" width="100pt" height="100pt" viewBox="0 0 100 100">
    <path className="fill-accent4"
        d="M91.668 50a2.084 2.084 0 01-2.082 2.082c-1.148 0-2.082-.934-2.082-2.082s.934-2.082 2.082-2.082c1.148 0 2.082.934 2.082 2.082zm-16.195-9.613c.398.508.54 1.16.383 1.785L71.688 58.84a2.09 2.09 0 01-2.024 1.578H30.336c-.957 0-1.789-.648-2.023-1.578l-4.168-16.668a2.054 2.054 0 01.383-1.785 2.069 2.069 0 011.644-.805h47.66c.645 0 1.243.293 1.64.805zm-40.055 13.78a2.084 2.084 0 00-2.082-2.081 2.084 2.084 0 00-2.082 2.082c0 1.148.934 2.082 2.082 2.082a2.084 2.084 0 002.082-2.082zm0-8.335a2.084 2.084 0 00-2.082-2.082 2.084 2.084 0 00-2.082 2.082c0 1.148.934 2.082 2.082 2.082a2.079 2.079 0 002.082-2.082zm8.332 8.336a2.084 2.084 0 00-2.082-2.082 2.084 2.084 0 00-2.082 2.082c0 1.148.934 2.082 2.082 2.082a2.084 2.084 0 002.082-2.082zm0-8.336a2.084 2.084 0 00-2.082-2.082 2.084 2.084 0 00-2.082 2.082c0 1.148.934 2.082 2.082 2.082a2.079 2.079 0 002.082-2.082zm8.332 8.336c0-1.149-.934-2.082-2.082-2.082s-2.082.933-2.082 2.082c0 1.148.934 2.082 2.082 2.082s2.082-.934 2.082-2.082zm0-8.336c0-1.149-.934-2.082-2.082-2.082s-2.082.933-2.082 2.082c0 1.148.934 2.082 2.082 2.082a2.079 2.079 0 002.082-2.082zm8.336 8.336a2.084 2.084 0 00-2.082-2.082 2.084 2.084 0 00-2.082 2.082c0 1.148.933 2.082 2.082 2.082a2.084 2.084 0 002.082-2.082zm0-8.336a2.084 2.084 0 00-2.082-2.082 2.084 2.084 0 00-2.082 2.082c0 1.148.933 2.082 2.082 2.082a2.079 2.079 0 002.082-2.082zm8.332 8.336a2.084 2.084 0 00-2.082-2.082 2.084 2.084 0 00-2.082 2.082c0 1.148.933 2.082 2.082 2.082a2.084 2.084 0 002.082-2.082zm0-8.336a2.084 2.084 0 00-2.082-2.082 2.084 2.084 0 00-2.082 2.082c0 1.148.933 2.082 2.082 2.082a2.079 2.079 0 002.082-2.082zm-58.332 2.086c-1.148 0-2.082.933-2.082 2.082s.933 2.082 2.082 2.082c1.148 0 2.082-.934 2.082-2.082s-.934-2.082-2.082-2.082zM100 31.25v37.5c0 1.148-.93 2.082-2.082 2.082H2.082A2.081 2.081 0 010 68.75v-37.5c0-1.149.93-2.082 2.082-2.082h95.832c1.156 0 2.086.933 2.086 2.082zM16.668 50a6.258 6.258 0 00-6.25-6.25c-3.445 0-6.25 2.804-6.25 6.25s2.805 6.25 6.25 6.25a6.258 6.258 0 006.25-6.25zm62.09-12.18a6.214 6.214 0 00-4.926-2.403h-47.66a6.209 6.209 0 00-4.926 2.403 6.207 6.207 0 00-1.136 5.363l4.168 16.668a6.235 6.235 0 006.058 4.73h39.328a6.243 6.243 0 006.063-4.734l4.168-16.668a6.214 6.214 0 00-1.137-5.36zM95.832 50a6.258 6.258 0 00-6.25-6.25c-3.445 0-6.25 2.804-6.25 6.25s2.805 6.25 6.25 6.25a6.258 6.258 0 006.25-6.25z">
    </path>
</svg>