<svg width="100pt" height="100pt" version="1.1" viewBox="0 0 100 100" xmlns="http://www.w3.org/2000/svg">
  <defs>
    <clipPath id="d">
      <path d="m18.512 24h13.488v14h-13.488z" />
    </clipPath>
    <clipPath id="c">
      <path d="m68 24h13.488v14h-13.488z" />
    </clipPath>
    <clipPath id="b">
      <path d="m77 70h4.4883v6h-4.4883z" />
    </clipPath>
    <clipPath id="a">
      <path d="m77 62h4.4883v5h-4.4883z" />
    </clipPath>
  </defs>
  <g clip-path="url(#d)">
    <path d="m18.512 24.809h12.594v12.594h-12.594z" className="fill-accent3" />
  </g>
  <path d="m35.305 24.809h12.594v12.594h-12.594z" className="fill-accent3" />
  <g clip-path="url(#c)">
    <path d="m68.895 24.809h12.594v12.594h-12.594z" className="fill-accent3" />
  </g>
  <path d="m52.098 24.809h12.594v12.594h-12.594z" className="fill-accent3" />
  <path d="m50 41.602-6.2969 6.3008h4.1992v10.496h4.1953v-10.496h4.1992z" className="fill-accent3" />
  <path d="m52.098 62.594v4.1992h2.1016v-2.0977h2.0977v-2.1016z" className="fill-accent3" />
  <path d="m54.199 70.992h-2.1016v4.1992h4.1992v-2.1016h-2.0977z" className="fill-accent3" />
  <path d="m62.594 73.09h-2.0977v2.1016h4.1992v-4.1992h-2.1016z" className="fill-accent3" />
  <path d="m60.496 62.594v2.1016h2.0977v2.0977h2.1016v-4.1992z" className="fill-accent3" />
  <path d="m68.895 62.594v4.1992h2.0977v-2.0977h2.0977v-2.1016z" className="fill-accent3" />
  <path d="m70.992 70.992h-2.0977v4.1992h4.1953v-2.1016h-2.0977z" className="fill-accent3" />
  <g clip-path="url(#b)">
    <path d="m79.391 73.09h-2.1016v2.1016h4.1992v-4.1992h-2.0977z" className="fill-accent3" />
  </g>
  <g clip-path="url(#a)">
    <path d="m77.289 62.594v2.1016h2.1016v2.0977h2.0977v-4.1992z" className="fill-accent3" />
  </g>
</svg>