<svg width="100pt" height="100pt" version="1.1" viewBox="0 0 100 100" xmlns="http://www.w3.org/2000/svg">
    <path
        d="m79.879 20.555c-0.18359-0.082032-0.37109-0.10938-0.5625-0.10938v-0.015624l-42.918 0.003906c-0.32422 0-0.63672 0.11719-0.88281 0.32812l-15.711 13.516 0.011718 0.011718c-0.28906 0.24609-0.48047 0.60156-0.48047 1.0117v42.914c0 0.74609 0.60547 1.3516 1.3516 1.3516h42.914c0.33984 0 0.63672-0.13672 0.87109-0.33984l0.011719 0.011719 15.715-13.516c0.30078-0.25781 0.46875-0.63281 0.46875-1.0234v-42.914c-0.003907-0.52734-0.30859-1.0117-0.78906-1.2305zm-1.918 43.469h-13.012l0.003906-28.102 13.012-11.191zm-1.5078 1.3516-11.5 9.8945v-9.8945zm-40.73-0.98438-13.684 11.77v-39.512h13.688zm1.3516-27.738h25.176v27.371h-25.176zm26.023-2.7031h-26.023v-10.812h38.594zm-27.375-9.8008v9.8008h-11.391zm-12.43 52.715 13.355-11.488h25.602v11.488z"
        className="fill-accent2" />
</svg>