<svg version="1.1" viewBox="0 0 100 100" xmlns="http://www.w3.org/2000/svg" height="100pt" width="100pt">
    <g className="stroke-accent2" fill="none" stroke-miterlimit="10" stroke-width="2">
        <path
            d="m49.23 37.879-8.3008-4.7891c-0.69141-0.39844-1.5469-0.39844-2.2383 0l-8.3008 4.7891c-0.85547 0.48047-1.3828 1.3828-1.3906 2.3594v9.3125c0 0.97266 0.51953 1.8711 1.3594 2.3594l8.3008 4.7891c0.69141 0.40234 1.5469 0.40234 2.2383 0l8.3008-4.7891c0.84375-0.48828 1.3594-1.3867 1.3594-2.3594v-9.3125c0.007812-0.96484-0.5-1.8633-1.3281-2.3594z" />
        <path d="m36.41 43.629 2 1.2812c0.84375 0.48828 1.8867 0.48828 2.7305 0l1.9297-1.1016" />
        <path d="m29.301 39.059 9.0977 5.8398c0.84375 0.48828 1.3594 1.3906 1.3633 2.3633v5.4609" />
        <path d="m50.5 39.539-9.3711 5.3594c-0.83984 0.48828-1.3594 1.3906-1.3594 2.3633v9.7383" />
        <path
            d="m34.898 54.539-4.5117 2.6094h0.003906c-0.85547 0.48047-1.3828 1.3828-1.3906 2.3633v9.3086c0 0.97266 0.51953 1.8711 1.3594 2.3594l8.332 4.8203c0.69141 0.39844 1.5469 0.39844 2.2383 0l8.3008-4.7891c0.83984-0.48828 1.3594-1.3867 1.3594-2.3594v-9.3398c0-0.97266-0.51953-1.875-1.3594-2.3633l-4.5781-2.6406" />
        <path d="m36.41 62.891 2 1.2812c0.84375 0.48438 1.8867 0.48438 2.7305 0l1.9297-1.1016" />
        <path d="m29.301 58.328 9.1094 5.8398v0.003906c0.83984 0.48438 1.3594 1.3867 1.3594 2.3594v5.4688" />
        <path d="m50.5 58.809-9.3789 5.3711c-0.84375 0.48828-1.3594 1.3867-1.3594 2.3594v9.7383" />
        <path
            d="m50.578 44.691 5.2109 3c0.69531 0.39844 1.5469 0.39844 2.2422 0l8.3008-4.7891-0.003906-0.003906c0.84375-0.48828 1.3633-1.3867 1.3633-2.3594v-9.3008c0-0.97266-0.51953-1.8711-1.3633-2.3594l-8.3281-4.7891c-0.69141-0.39844-1.5469-0.39844-2.2383 0l-8.3008 4.7891c-0.84375 0.48828-1.3594 1.3867-1.3594 2.3594v4.8203" />
        <path d="m53.52 34.629 2 1.2812c0.84375 0.48828 1.8867 0.48828 2.7305 0l1.9297-1.1016" />
        <path d="m46.398 30.059 9.1094 5.8398h0.003907c0.83984 0.48828 1.3594 1.3906 1.3594 2.3633v5.4609" />
        <path d="m67.609 30.539-9.3789 5.3594c-0.84375 0.48828-1.3594 1.3906-1.3594 2.3633v9.7383" />
        <path
            d="m50.578 64 5.2188 3h0.003906c0.68359 0.38672 1.5156 0.38672 2.1992 0l8.3008-4.7891c0.83984-0.48828 1.3594-1.3867 1.3594-2.3594v-9.3398c0-0.97266-0.51953-1.875-1.3594-2.3633l-4.5508-2.6289m-15.621 8.1719v1.6484m5.8984-9.8008-1.4297 0.82813" />
        <path d="m53.52 53.891 2 1.2812c0.84375 0.48438 1.8867 0.48438 2.7305 0l1.9297-1.1016" />
        <path d="m49.77 51.488 5.7305 3.6797v0.003906c0.83984 0.48438 1.3594 1.3867 1.3594 2.3594v5.4688" />
        <path d="m67.609 49.809-9.3789 5.3711c-0.84375 0.48828-1.3594 1.3867-1.3594 2.3594v9.7383" />
    </g>
</svg>