<svg width="100pt" height="100pt" version="1.1" viewBox="0 0 100 100" xmlns="http://www.w3.org/2000/svg">
    <path
        d="m13.34 79.66 17.551 10.191c0.12891 0.070313 0.26172 0.078126 0.39844 0.10156 0.050782 0.019531 0.10156 0.050781 0.16016 0.050781 0.17969 0 0.37891-0.050781 0.53906-0.14844h0.019531l17.57-10.191c0.35156-0.19922 0.55859-0.55859 0.55859-0.94922v-7.2617c0.14844-0.019531 0.28125-0.070313 0.41016-0.12891l0.003906-0.023438 17.57-10.191c0.35156-0.19922 0.55859-0.55859 0.55859-0.94922v-7.2617c0.14844-0.019532 0.28125-0.050782 0.41016-0.12891l17.578-10.191c0.35156-0.19922 0.53906-0.55859 0.53906-0.94922l0.003907-20.367c0-0.12109-0.050782-0.23047-0.078126-0.32812-0.019531-0.078125-0.019531-0.16016-0.070312-0.23047-0.078125-0.16016-0.23047-0.30078-0.39844-0.39844l-17.426-10.156c-0.35156-0.19922-0.76953-0.19922-1.1211 0l-17.676 10.16c-0.070312 0.03125-0.10156 0.10156-0.14844 0.12891-0.10156 0.078125-0.19922 0.16016-0.26172 0.26172-0.03125 0.070312-0.03125 0.14844-0.050781 0.23047-0.050781 0.10156-0.10156 0.19922-0.10156 0.32812v7.3281c-0.10156 0.019531-0.19922 0.070312-0.30078 0.12109l-17.699 10.141c-0.050781 0.03125-0.078125 0.10156-0.12891 0.14844-0.10156 0.078125-0.19922 0.14844-0.26172 0.26172-0.050781 0.070313-0.03125 0.14844-0.070312 0.21094-0.03125 0.12109-0.078125 0.21094-0.078125 0.32812v7.3281c-0.12109 0.019531-0.21094 0.050781-0.30859 0.12109l-17.691 10.133c-0.070313 0.050782-0.10156 0.12109-0.14844 0.14844-0.10156 0.078125-0.19922 0.16016-0.26172 0.26172-0.03125 0.070313-0.03125 0.14844-0.050782 0.21094-0.050781 0.12109-0.10156 0.21094-0.10156 0.35156v20.352c0.003906 0.39844 0.22266 0.75781 0.5625 0.95703zm34.582-11.801v10.211l-15.359 8.9102-0.003906-17.941 6.5508-3.7383 2.2188-1.2695 3.75-2.1602 2.8281-1.6094 0.003906 7.5977zm18.539-18.559v10.211l-15.34 8.9102v-17.922l6.5391-3.75 2.2188-1.2695 3.7695-2.1602 2.8203-1.6094v7.5898zm18.551-8.332-15.359 8.9102-0.003906-17.93 12.531-7.1602 2.8281-1.6094zm-16.332-28.578 15.211 8.8594-15.461 8.8516-15.23-8.8398zm-16.578 10.801 15.18 8.8594 0.050781 6.3398-15.23-8.8594zm-2.2227 7.8984 0.25-0.14844 1.9805 1.1484 13.25 7.7109-7.6914 4.3984-2.2383 1.2695-5.5508 3.1797-15.211-8.8203zm-16.34 10.641 15.18 8.8594 0.050781 6.3594-15.23-8.8711zm-2.1992 7.8984 0.25-0.14844 1.9609 1.1406 13.27 7.7188-7.7109 4.4102-2.2109 1.2695-5.5586 3.1797-15.23-8.8398zm-16.328 10.652 15.18 8.8594 0.14844 17.809-15.328-8.8906z"
        className="fill-accent2" />
</svg>