<svg width="100pt" height="100pt" version="1.1" viewBox="0 0 100 100" xmlns="http://www.w3.org/2000/svg">
    <g className="fill-accent2">
        <path
            d="m84.844 49.219c-4.5312-19.688-8.5938-38.281-18.125-38.281s-13.75 18.594-18.125 38.281c-3.9062 4.375-7.8125 8.5938-15.156 8.5938-7.5 0-11.25-4.0625-15.156-8.5938-4.5312-19.688-8.75-38.281-18.281-38.281v3.125c3.4375 0 6.25 4.6875 8.75 11.562-2.3438-3.2812-5.1562-5.3125-8.75-5.3125v3.125c4.2188 0 7.3438 4.6875 10 11.25-2.6562-2.9688-5.7812-5-10-5v3.125c5.1562 0 8.5938 4.2188 11.562 10-2.9688-2.1875-6.5625-3.75-11.562-3.75v3.125c7.5 0 11.25 4.0625 15.156 8.5938 4.5312 19.688 8.5938 38.281 18.125 38.281s13.75-18.594 18.125-38.281c3.9062-4.375 7.8125-8.5938 15.156-8.5938 7.5 0 11.25 4.0625 15.156 8.5938 4.5312 19.688 8.75 38.281 18.281 38.281v-3.125c-3.4375 0-6.25-4.6875-8.75-11.562 2.3438 3.2812 5.1562 5.3125 8.75 5.3125v-3.125c-4.2188 0-7.3438-4.6875-10-11.25 2.6562 3.125 5.7812 5 10 5v-3.125c-5.1562 0-8.5938-4.2188-11.562-10 2.9688 2.1875 6.5625 3.75 11.562 3.75v-3.125c-7.5 0-11.25-4.0625-15.156-8.5938zm-18.125-35.156c3.4375 0 6.25 4.6875 8.75 11.562-2.5-3.2812-5.3125-5.3125-8.75-5.3125-3.5938 0-6.4062 2.0312-8.75 5.3125 2.3438-6.875 5.1562-11.562 8.75-11.562zm10 20.625c-2.6562-3.125-5.7812-5-10-5s-7.3438 2.0312-10 5c2.6562-6.5625 5.7812-11.25 10-11.25s7.3438 4.6875 10 11.25zm-31.875 22.5c-2.9688 5.7812-6.4062 10-11.562 10s-8.5938-4.2188-11.562-10c2.9688 2.1875 6.5625 3.75 11.562 3.75s8.5938-1.5625 11.562-3.75zm-1.5625 8.125c-2.6562 6.5625-5.7812 11.25-10 11.25s-7.3438-4.6875-10-11.25c2.6562 3.125 5.7812 5 10 5s7.3438-2.0312 10-5zm-10 20.625c-3.4375 0-6.25-4.6875-8.75-11.562 2.3438 3.2812 5.1562 5.3125 8.75 5.3125s6.4062-2.0312 8.75-5.3125c-2.3438 6.875-5.1562 11.562-8.75 11.562zm21.875-43.125c2.9688-5.7812 6.4062-10 11.562-10s8.5938 4.2188 11.562 10c-2.9688-2.1875-6.5625-3.75-11.562-3.75s-8.5938 1.5625-11.562 3.75z" />
        <path d="m0 48.438h3.125v3.125h-3.125z" />
        <path d="m6.25 48.438h3.125v3.125h-3.125z" />
        <path d="m90.625 48.438h3.125v3.125h-3.125z" />
        <path d="m96.875 48.438h3.125v3.125h-3.125z" />
        <path d="m25 48.438h3.125v3.125h-3.125z" />
        <path d="m31.25 48.438h3.125v3.125h-3.125z" />
        <path d="m37.5 48.438h3.125v3.125h-3.125z" />
        <path d="m59.375 48.438h3.125v3.125h-3.125z" />
        <path d="m65.625 48.438h3.125v3.125h-3.125z" />
        <path d="m71.875 48.438h3.125v3.125h-3.125z" />
    </g>
</svg>