<svg xmlns="http://www.w3.org/2000/svg" width="100pt" height="100pt" viewBox="0 0 100 100">
    <g className="fill-accent4" fillRule="evenodd">
        <path
            d="M62.605 17.723a2.053 2.053 0 00-2.035-1.648H39.449c-.996 0-1.832.671-2.035 1.648l-2.301 11.148h29.789zm-4.316 7.61c0 .55-.45.976-.977.976H42.683a.977.977 0 01-.977-.977l.004-5.718c0-.551.426-.977.977-.977h14.629c.527 0 .977.426.977.977z">
        </path>
        <path
            d="M43.664 20.59H56.34v3.766H43.664zM23.52 25.371a1.14 1.14 0 00-1.14-1.14H17.8a1.14 1.14 0 00-1.14 1.14v3.5h6.855zM10.133 78.109h-2.91v4.273c0 .856.691 1.567 1.566 1.567h4.274v-2.91c-.02-1.61-1.301-2.93-2.93-2.93zM14.996 81.016v2.91h69.988v-2.91c.02-.082.02-.164.02-.246l-70.008.004v.242zM92.777 76.156v-3.621H61.203a18.74 18.74 0 01-11.191 3.703c-4.191-.02-8.078-1.383-11.191-3.703H21.02L7.223 72.53v3.621h2.91c1.89 0 3.54 1.078 4.332 2.664h71.047c.813-1.586 2.442-2.664 4.332-2.664zM92.777 78.109h-2.91a2.91 2.91 0 00-2.91 2.91v2.91h4.254c.855 0 1.566-.691 1.566-1.566zM79.98 44.191h12.797v26.387H79.98zM78.027 44.191h-14.59c3.336 3.398 5.41 8.059 5.41 13.184a18.7 18.7 0 01-5.41 13.184l14.59.02z">
        </path>
        <path
            d="M50.012 74.262c9.32 0 16.887-7.57 16.887-16.887 0-9.32-7.57-16.887-16.887-16.887-9.32 0-16.887 7.57-16.887 16.887 0 9.32 7.566 16.887 16.887 16.887zm0-29.277c6.816.02 12.371 5.574 12.371 12.391 0 6.836-5.555 12.391-12.371 12.391-6.836 0-12.391-5.555-12.391-12.391s5.555-12.391 12.391-12.391z">
        </path>
        <path
            d="M49.988 67.812c5.758 0 10.438-4.68 10.438-10.438s-4.68-10.438-10.438-10.438c-5.758 0-10.438 4.68-10.438 10.438s4.68 10.438 10.438 10.438zm0-17.414c3.844 0 6.98 3.133 6.98 6.98a6.955 6.955 0 01-.734 3.133.959.959 0 01-1.3.426.958.958 0 01-.45-1.3 5.039 5.039 0 00-4.5-7.285.962.962 0 01-.976-.977.97.97 0 01.98-.977zM36.562 44.211h-14.59v26.391l14.59-.02c-3.336-3.398-5.41-8.058-5.41-13.184a18.676 18.676 0 015.41-13.188zM7.223 44.191H20.02v26.387H7.223zM18.758 34.832h-4.23a.86.86 0 00-.856.855v1.688a.86.86 0 00.855.855h4.231a.86.86 0 00.855-.855v-1.688a.86.86 0 00-.855-.855zM76.746 38.23h9.035a.55.55 0 00.551-.55v-2.302a.55.55 0 00-.55-.55h-9.036a.55.55 0 00-.55.55v2.301c0 .305.245.551.55.551z">
        </path>
        <path
            d="M49.988 38.535c4.191 0 8.059 1.383 11.191 3.703h31.598V32.39c0-.855-.691-1.566-1.566-1.566H8.789c-.856 0-1.567.691-1.567 1.566v9.848H38.8a18.728 18.728 0 0111.188-3.703zm24.254-3.152a2.501 2.501 0 012.504-2.504h9.035a2.501 2.501 0 012.504 2.504v2.3a2.501 2.501 0 01-2.504 2.504h-9.035a2.501 2.501 0 01-2.504-2.503zm-52.676 1.992a2.814 2.814 0 01-2.809 2.808h-4.23a2.814 2.814 0 01-2.809-2.808v-1.688a2.814 2.814 0 012.809-2.808h4.23a2.814 2.814 0 012.809 2.808z">
        </path>
    </g>
</svg>