<svg class="h-full w-full" version="1.1" viewBox="0 0 1200 1200" xmlns="http://www.w3.org/2000/svg">
    <path class="fill-accent5"
        d="m1122.7 1099.2h-37.5v-914.06c0-12.938-10.5-23.438-23.438-23.438h-187.5c-12.938 0-23.438 10.5-23.438 23.438v914.06h-93.75v-632.81c0-12.938-10.5-23.438-23.438-23.438h-187.5c-12.938 0-23.438 10.5-23.438 23.438v632.81h-93.75v-351.56c0-12.938-10.5-23.438-23.438-23.438h-187.5c-12.938 0-23.438 10.5-23.438 23.438v351.56h-93.75v-1021.9c0-12.938-10.5-23.438-23.438-23.438s-23.438 10.5-23.438 23.438v1045.3c0 12.938 10.5 23.438 23.438 23.438h1045.3c12.938 0 23.438-10.5 23.438-23.438s-10.5-23.438-23.438-23.438zm-740.62 0h-140.62v-328.12h140.62zm328.12 0h-140.62v-609.38h140.62zm328.12 0h-140.62v-890.62h140.62z" />
</svg>