<?xml version="1.0" encoding="UTF-8"?>
<svg height="100pt" width="100pt" version="1.1" viewBox="0 0 1200 1200" xmlns="http://www.w3.org/2000/svg">
    <g>
        <path class="fill-accent5"
            d="m1087.5 75h-975c-20.738 0-37.5 16.801-37.5 37.5v975c0 20.699 16.762 37.5 37.5 37.5h975c20.738 0 37.5-16.801 37.5-37.5v-975c0-20.699-16.762-37.5-37.5-37.5zm-37.5 975h-900v-900h900z" />
        <path class="fill-accent5"
            d="m637.5 412.5h75c20.738 0 37.5-16.801 37.5-37.5v-75c0-20.699-16.762-37.5-37.5-37.5h-75c-20.738 0-37.5 16.801-37.5 37.5v75c0 20.699 16.762 37.5 37.5 37.5z" />
        <path class="fill-accent5"
            d="m450 412.5h75c20.738 0 37.5-16.801 37.5-37.5v-75c0-20.699-16.762-37.5-37.5-37.5h-75c-20.738 0-37.5 16.801-37.5 37.5v75c0 20.699 16.762 37.5 37.5 37.5z" />
        <path class="fill-accent5"
            d="m225 975h75c20.738 0 37.5-16.801 37.5-37.5v-75c0-20.699-16.762-37.5-37.5-37.5h-75c-20.738 0-37.5 16.801-37.5 37.5v75c0 20.699 16.762 37.5 37.5 37.5z" />
        <path class="fill-accent5"
            d="m487.5 825h-75c-20.738 0-37.5 16.801-37.5 37.5v75c0 20.699 16.762 37.5 37.5 37.5h75c20.738 0 37.5-16.801 37.5-37.5v-75c0-20.699-16.762-37.5-37.5-37.5z" />
        <path class="fill-accent5"
            d="m225 712.5h150c20.738 0 37.5-16.801 37.5-37.5v-150c0-20.699-16.762-37.5-37.5-37.5h-150c-20.738 0-37.5 16.801-37.5 37.5v150c0 20.699 16.762 37.5 37.5 37.5zm37.5-150h75v75h-75z" />
        <path class="fill-accent5"
            d="m225 412.5h112.5c20.738 0 37.5-16.801 37.5-37.5v-112.5c0-20.699-16.762-37.5-37.5-37.5h-112.5c-20.738 0-37.5 16.801-37.5 37.5v112.5c0 20.699 16.762 37.5 37.5 37.5zm37.5-112.5h37.5v37.5h-37.5z" />
        <path class="fill-accent5"
            d="m675 675v-112.5c0-20.699-16.762-37.5-37.5-37.5h-112.5c-20.738 0-37.5 16.801-37.5 37.5v112.5c0 20.699 16.762 37.5 37.5 37.5h112.5c20.738 0 37.5-16.801 37.5-37.5zm-75-37.5h-37.5v-37.5h37.5z" />
        <path class="fill-accent5"
            d="m712.5 787.5h-112.5c-20.738 0-37.5 16.801-37.5 37.5v112.5c0 20.699 16.762 37.5 37.5 37.5h112.5c20.738 0 37.5-16.801 37.5-37.5v-112.5c0-20.699-16.762-37.5-37.5-37.5zm-37.5 112.5h-37.5v-37.5h37.5z" />
        <path class="fill-accent5"
            d="m937.5 787.5h-112.5c-20.738 0-37.5 16.801-37.5 37.5v112.5c0 20.699 16.762 37.5 37.5 37.5h112.5c20.738 0 37.5-16.801 37.5-37.5v-112.5c0-20.699-16.762-37.5-37.5-37.5zm-37.5 112.5h-37.5v-37.5h37.5z" />
        <path class="fill-accent5"
            d="m825 412.5h150c20.738 0 37.5-16.801 37.5-37.5v-150c0-20.699-16.762-37.5-37.5-37.5h-150c-20.738 0-37.5 16.801-37.5 37.5v150c0 20.699 16.762 37.5 37.5 37.5zm37.5-150h75v75h-75z" />
        <path class="fill-accent5"
            d="m750 675c0 20.699 16.762 37.5 37.5 37.5h187.5c20.738 0 37.5-16.801 37.5-37.5v-187.5c0-20.699-16.762-37.5-37.5-37.5h-187.5c-20.738 0-37.5 16.801-37.5 37.5zm75-150h112.5v112.5h-112.5z" />
    </g>
</svg>