<?xml version="1.0" encoding="UTF-8"?>
<svg height="100pt" width="100pt" version="1.1" viewBox="-120 -80 1400 1400" xmlns="http://www.w3.org/2000/svg">
    <path class="fill-accent5" fill-opacity="0.8"
        d="m191.77 11.988h816.45c47.09 0 89.895 19.262 120.89 50.258 30.996 30.996 50.258 73.801 50.258 120.89v833.73c0 47.09-19.262 89.895-50.258 120.89-30.996 30.996-73.801 50.258-120.89 50.258h-816.45c-47.09 0-89.895-19.262-120.89-50.258-30.996-30.996-50.258-73.801-50.258-120.89v-833.73c0-47.09 19.262-89.895 50.258-120.89 30.996-30.996 73.801-50.258 120.89-50.258zm284.51 712.38-175.5-101.34c-33.66-19.441-69.734-29.16-105.8-29.16-36.074 0-72.18 9.7188-105.8 29.125l0.035157 0.070313-13.43 7.7383v324.8zm-400.5-156.53c38.305-19.402 78.77-29.09 119.23-29.09 45.504 0 90.973 12.238 133.34 36.684l202.93 117.14 89.102-51.41 0.035157 0.035156 0.070312-0.035156c42.371-24.48 87.805-36.719 133.27-36.719 45.504 0 90.973 12.238 133.34 36.719l237.17 136.95v-594.98c0-31.859-13.066-60.875-34.094-81.938-21.059-21.023-50.039-34.094-81.938-34.094h-816.45c-31.859 0-60.875 13.066-81.938 34.094-21.023 21.023-34.094 50.039-34.094 81.938v384.7zm430.82-387.22c43.922 0 83.664 17.785 112.43 46.586 28.801 28.766 46.586 68.543 46.586 112.43 0 43.922-17.785 83.664-46.586 112.46-28.766 28.766-68.543 46.586-112.43 46.586-43.922 0-83.664-17.785-112.46-46.586-28.766-28.801-46.586-68.543-46.586-112.46s17.785-83.664 46.586-112.43c28.766-28.801 68.543-46.586 112.46-46.586zm73.477 85.535c-18.793-18.793-44.785-30.422-73.477-30.422s-54.684 11.629-73.477 30.422c-18.793 18.793-30.422 44.785-30.422 73.477s11.629 54.684 30.422 73.477c18.793 18.793 44.785 30.422 73.477 30.422s54.684-11.629 73.477-30.422c18.793-18.793 30.422-44.785 30.422-73.477s-11.629-54.684-30.422-73.477zm544.14 575.39-264.75-152.86c-33.66-19.441-69.734-29.16-105.77-29.16-36.074 0-72.18 9.7188-105.84 29.125l0.035157 0.035156-102.6 59.258-0.53906 0.32422-469.01 270.76c0.61328 30.996 13.535 59.148 34.055 79.703 21.059 21.023 50.039 34.094 81.938 34.094h816.45c31.859 0 60.875-13.066 81.938-34.094 21.023-21.023 34.094-50.039 34.094-81.938v-175.29z" />
</svg>