<svg height="100pt" width="100pt" viewBox="0 0 125 126" fill="none" xmlns="http://www.w3.org/2000/svg">
  <g clipPath="url(#clip0_5_166)">
    <path opacity="0.9" d="M47.4886 85L12 106.353H83.4382L113 85H47.4886Z" className="fill-accent5" />
    <path
      d="M67.8298 92.7645C69.6696 92.7645 71.161 91.2613 71.161 89.407C71.161 87.5528 69.6696 86.0496 67.8298 86.0496C65.9901 86.0496 64.4987 87.5528 64.4987 89.407C64.4987 91.2613 65.9901 92.7645 67.8298 92.7645Z"
      fill="white" />
    <path
      d="M46.3311 93.7149C48.1709 93.7149 49.6623 92.2117 49.6623 90.3574C49.6623 88.5032 48.1709 87 46.3311 87C44.4914 87 43 88.5032 43 90.3574C43 92.2117 44.4914 93.7149 46.3311 93.7149Z"
      fill="white" />
    <path opacity="0.8"
      d="M73.3311 99.7149C75.1709 99.7149 76.6623 98.2117 76.6623 96.3574C76.6623 94.5032 75.1709 93 73.3311 93C71.4914 93 70 94.5032 70 96.3574C70 98.2117 71.4914 99.7149 73.3311 99.7149Z"
      fill="white" />
    <path
      d="M58.7139 84.8831C60.446 84.8831 61.8505 83.4676 61.8505 81.7217C61.8505 79.9758 60.446 78.5603 58.7139 78.5603C56.9817 78.5603 55.5773 79.9758 55.5773 81.7217C55.5773 83.4676 56.9817 84.8831 58.7139 84.8831Z"
      className="fill-accent5" />
    <path
      d="M72.654 70.8973C74.3862 70.8973 75.7906 69.4818 75.7906 67.7359C75.7906 65.9901 74.3862 64.5746 72.654 64.5746C70.9218 64.5746 69.5174 65.9901 69.5174 67.7359C69.5174 69.4818 70.9218 70.8973 72.654 70.8973Z"
      className="fill-accent5" />
    <path
      d="M72.654 77.9211C74.3862 77.9211 75.7906 76.5056 75.7906 74.7597C75.7906 73.0138 74.3862 71.5983 72.654 71.5983C70.9218 71.5983 69.5174 73.0138 69.5174 74.7597C69.5174 76.5056 70.9218 77.9211 72.654 77.9211Z"
      className="fill-accent5" />
    <path
      d="M33.1366 78.3227C34.8688 78.3227 36.2732 76.9072 36.2732 75.1614C36.2732 73.4155 34.8688 72 33.1366 72C31.4044 72 30 73.4155 30 75.1614C30 76.9072 31.4044 78.3227 33.1366 78.3227Z"
      className="fill-accent5" />
    <path opacity="0.9"
      d="M85.704 69.1058C87.4362 69.1058 88.8406 67.6903 88.8406 65.9444C88.8406 64.1986 87.4362 62.7831 85.704 62.7831C83.9718 62.7831 82.5674 64.1986 82.5674 65.9444C82.5674 67.6903 83.9718 69.1058 85.704 69.1058Z"
      className="fill-accent5" />
    <path opacity="0.9"
      d="M71.2602 65.9767C72.9924 65.9767 74.3968 64.5612 74.3968 62.8153C74.3968 61.0694 72.9924 59.6539 71.2602 59.6539C69.528 59.6539 68.1236 61.0694 68.1236 62.8153C68.1236 64.5612 69.528 65.9767 71.2602 65.9767Z"
      className="fill-accent5" />
    <path opacity="0.75"
      d="M69.1683 61.0587C70.9005 61.0587 72.3049 59.6432 72.3049 57.8973C72.3049 56.1514 70.9005 54.736 69.1683 54.736C67.4361 54.736 66.0317 56.1514 66.0317 57.8973C66.0317 59.6432 67.4361 61.0587 69.1683 61.0587Z"
      className="fill-accent5" />
    <path opacity="0.75"
      d="M71.2602 57.5455C72.9924 57.5455 74.3968 56.13 74.3968 54.3841C74.3968 52.6382 72.9924 51.2227 71.2602 51.2227C69.528 51.2227 68.1236 52.6382 68.1236 54.3841C68.1236 56.13 69.528 57.5455 71.2602 57.5455Z"
      className="fill-accent5" />
    <path opacity="0.59"
      d="M74.7459 54.736C76.4781 54.736 77.8825 53.3205 77.8825 51.5746C77.8825 49.8287 76.4781 48.4132 74.7459 48.4132C73.0138 48.4132 71.6093 49.8287 71.6093 51.5746C71.6093 53.3205 73.0138 54.736 74.7459 54.736Z"
      className="fill-accent5" />
    <path opacity="0.59"
      d="M36.9042 77.537C38.6364 77.537 40.0408 76.1215 40.0408 74.3756C40.0408 72.6298 38.6364 71.2143 36.9042 71.2143C35.1721 71.2143 33.7677 72.6298 33.7677 74.3756C33.7677 76.1215 35.1721 77.537 36.9042 77.537Z"
      className="fill-accent5" />
    <path opacity="0.59"
      d="M45.885 72.3826C47.6172 72.3826 49.0216 70.9671 49.0216 69.2213C49.0216 67.4754 47.6172 66.0599 45.885 66.0599C44.1528 66.0599 42.7484 67.4754 42.7484 69.2213C42.7484 70.9671 44.1528 72.3826 45.885 72.3826Z"
      className="fill-accent5" />
    <path opacity="0.59"
      d="M48.9523 60.3576C50.6845 60.3576 52.0889 58.9421 52.0889 57.1963C52.0889 55.4504 50.6845 54.0349 48.9523 54.0349C47.2201 54.0349 45.8157 55.4504 45.8157 57.1963C45.8157 58.9421 47.2201 60.3576 48.9523 60.3576Z"
      className="fill-accent5" />
    <path opacity="0.59"
      d="M55.2255 77.22C56.9577 77.22 58.3621 75.8045 58.3621 74.0587C58.3621 72.3128 56.9577 70.8973 55.2255 70.8973C53.4933 70.8973 52.0889 72.3128 52.0889 74.0587C52.0889 75.8045 53.4933 77.22 55.2255 77.22Z"
      className="fill-accent5" />
    <path opacity="0.59"
      d="M58.0157 74.4079C59.7478 74.4079 61.1522 72.9924 61.1522 71.2465C61.1522 69.5006 59.7478 68.0851 58.0157 68.0851C56.2835 68.0851 54.8791 69.5006 54.8791 71.2465C54.8791 72.9924 56.2835 74.4079 58.0157 74.4079Z"
      className="fill-accent5" />
    <path opacity="0.59"
      d="M62.1969 74.4079C63.9291 74.4079 65.3335 72.9924 65.3335 71.2465C65.3335 69.5006 63.9291 68.0851 62.1969 68.0851C60.4647 68.0851 59.0603 69.5006 59.0603 71.2465C59.0603 72.9924 60.4647 74.4079 62.1969 74.4079Z"
      className="fill-accent5" />
    <path opacity="0.59"
      d="M58.0157 54.736C59.7478 54.736 61.1522 53.3205 61.1522 51.5746C61.1522 49.8287 59.7478 48.4132 58.0157 48.4132C56.2835 48.4132 54.8791 49.8287 54.8791 51.5746C54.8791 53.3205 56.2835 54.736 58.0157 54.736Z"
      className="fill-accent5" />
    <path opacity="0.59"
      d="M55.7292 85.2645C57.4613 85.2645 58.8658 83.849 58.8658 82.1031C58.8658 80.3572 57.4613 78.9417 55.7292 78.9417C53.997 78.9417 52.5926 80.3572 52.5926 82.1031C52.5926 83.849 53.997 85.2645 55.7292 85.2645Z"
      className="fill-accent5" />
    <path opacity="0.59"
      d="M34.0368 61.107C35.769 61.107 37.1734 59.6915 37.1734 57.9457C37.1734 56.1998 35.769 54.7843 34.0368 54.7843C32.3046 54.7843 30.9002 56.1998 30.9002 57.9457C30.9002 59.6915 32.3046 61.107 34.0368 61.107Z"
      className="fill-accent5" />
    <path opacity="0.59"
      d="M51.4946 57.9752C53.2268 57.9752 54.6312 56.5597 54.6312 54.8138C54.6312 53.068 53.2268 51.6525 51.4946 51.6525C49.7624 51.6525 48.358 53.068 48.358 54.8138C48.358 56.5597 49.7624 57.9752 51.4946 57.9752Z"
      className="fill-accent5" />
    <path opacity="0.59"
      d="M33.4185 57.8624C35.1507 57.8624 36.5551 56.4469 36.5551 54.701C36.5551 52.9552 35.1507 51.5397 33.4185 51.5397C31.6864 51.5397 30.282 52.9552 30.282 54.701C30.282 56.4469 31.6864 57.8624 33.4185 57.8624Z"
      className="fill-accent5" />
    <path opacity="0.59"
      d="M69.1683 89.8655C70.9005 89.8655 72.3049 88.45 72.3049 86.7041C72.3049 84.9583 70.9005 83.5428 69.1683 83.5428C67.4361 83.5428 66.0317 84.9583 66.0317 86.7041C66.0317 88.45 67.4361 89.8655 69.1683 89.8655Z"
      fill="white" />
    <path opacity="0.59"
      d="M92.273 72.3504C94.0052 72.3504 95.4096 70.9349 95.4096 69.189C95.4096 67.4432 94.0052 66.0277 92.273 66.0277C90.5408 66.0277 89.1364 67.4432 89.1364 69.189C89.1364 70.9349 90.5408 72.3504 92.273 72.3504Z"
      className="fill-accent5" />
    <path opacity="0.59"
      d="M101.336 66.7287C103.069 66.7287 104.473 65.3132 104.473 63.5674C104.473 61.8215 103.069 60.406 101.336 60.406C99.6042 60.406 98.1998 61.8215 98.1998 63.5674C98.1998 65.3132 99.6042 66.7287 101.336 66.7287Z"
      className="fill-accent5" />
    <path opacity="0.59"
      d="M78.8232 59.3236C80.5554 59.3236 81.9598 57.9081 81.9598 56.1622C81.9598 54.4163 80.5554 53.0008 78.8232 53.0008C77.0911 53.0008 75.6866 54.4163 75.6866 56.1622C75.6866 57.9081 77.0911 59.3236 78.8232 59.3236Z"
      className="fill-accent5" />
    <path opacity="0.59"
      d="M91.9799 75.4285C93.7121 75.4285 95.1165 74.013 95.1165 72.2672C95.1165 70.5213 93.7121 69.1058 91.9799 69.1058C90.2477 69.1058 88.8433 70.5213 88.8433 72.2672C88.8433 74.013 90.2477 75.4285 91.9799 75.4285Z"
      className="fill-accent5" />
    <path opacity="0.59"
      d="M76.7339 69.8632C78.4661 69.8632 79.8705 68.4477 79.8705 66.7019C79.8705 64.956 78.4661 63.5405 76.7339 63.5405C75.0018 63.5405 73.5974 64.956 73.5974 66.7019C73.5974 68.4477 75.0018 69.8632 76.7339 69.8632Z"
      className="fill-accent5" />
    <path opacity="0.59"
      d="M68.089 81.069C69.8212 81.069 71.2256 79.6535 71.2256 77.9076C71.2256 76.1618 69.8212 74.7463 68.089 74.7463C66.3568 74.7463 64.9524 76.1618 64.9524 77.9076C64.9524 79.6535 66.3568 81.069 68.089 81.069Z"
      className="fill-accent5" />
    <path opacity="0.59"
      d="M70.8765 83.8812C72.6087 83.8812 74.0131 82.4657 74.0131 80.7198C74.0131 78.974 72.6087 77.5585 70.8765 77.5585C69.1443 77.5585 67.7399 78.974 67.7399 80.7198C67.7399 82.4657 69.1443 83.8812 70.8765 83.8812Z"
      className="fill-accent5" />
    <path opacity="0.59"
      d="M86.4102 80.7547C88.1424 80.7547 89.5468 79.3393 89.5468 77.5934C89.5468 75.8475 88.1424 74.432 86.4102 74.432C84.678 74.432 83.2736 75.8475 83.2736 77.5934C83.2736 79.3393 84.678 80.7547 86.4102 80.7547Z"
      className="fill-accent5" />
    <path opacity="0.59"
      d="M89.1977 77.9426C90.9299 77.9426 92.3343 76.5271 92.3343 74.7812C92.3343 73.0353 90.9299 71.6198 89.1977 71.6198C87.4655 71.6198 86.0611 73.0353 86.0611 74.7812C86.0611 76.5271 87.4655 77.9426 89.1977 77.9426Z"
      className="fill-accent5" />
    <path opacity="0.59"
      d="M93.3816 77.9426C95.1138 77.9426 96.5182 76.5271 96.5182 74.7812C96.5182 73.0353 95.1138 71.6198 93.3816 71.6198C91.6495 71.6198 90.245 73.0353 90.245 74.7812C90.245 76.5271 91.6495 77.9426 93.3816 77.9426Z"
      className="fill-accent5" />
    <path opacity="0.59"
      d="M86.9112 88.7992C88.6434 88.7992 90.0478 87.3837 90.0478 85.6378C90.0478 83.8919 88.6434 82.4764 86.9112 82.4764C85.179 82.4764 83.7746 83.8919 83.7746 85.6378C83.7746 87.3837 85.179 88.7992 86.9112 88.7992Z"
      fill="white" />
    <path opacity="0.8"
      d="M43.8456 91.4959C45.6854 91.4959 47.1768 89.9927 47.1768 88.1384C47.1768 86.2842 45.6854 84.781 43.8456 84.781C42.0059 84.781 40.5145 86.2842 40.5145 88.1384C40.5145 89.9927 42.0059 91.4959 43.8456 91.4959Z"
      fill="white" />
  </g>
  <defs>
    <clipPath id="clip0_5_166">
      <rect width="101" height="65" fill="white" transform="translate(12 41)" />
    </clipPath>
  </defs>
</svg>