<?xml version="1.0" encoding="UTF-8"?>
<svg height="100pt" width="100pt" version="1.1" viewBox="0 0 1200 1200" xmlns="http://www.w3.org/2000/svg">
    <path class="fill-accent5"
        d="m987.56 235.5h-775.12c-21.18 0.015625-41.484 8.4375-56.461 23.414-14.977 14.977-23.398 35.281-23.414 56.461v569.25c0.015625 21.18 8.4375 41.484 23.414 56.461 14.977 14.977 35.281 23.398 56.461 23.414h775.12c21.18-0.015625 41.484-8.4375 56.461-23.414 14.977-14.977 23.398-35.281 23.414-56.461v-569.25c-0.015625-21.18-8.4375-41.484-23.414-56.461-14.977-14.977-35.281-23.398-56.461-23.414zm-518.44 529v-125.26h261.75v125.26zm261.75 37.5v125h-261.75v-125zm299.06-325.56v125.3h-261.56v-125.3zm-299.06 0v125.3h-261.75v-125.3zm-299.25 125.3h-261.56v-125.3h261.56zm-261.56 37.5h261.56v125.26h-261.56zm598.31 0h261.56v125.26h-261.56zm-598.31 245.39v-82.625h261.56v125h-219.19c-11.23-0.019531-22-4.4922-29.941-12.434s-12.414-18.711-12.434-29.941zm817.5 42.375h-219.19v-125h261.56v82.625c0.011719 11.242-4.4492 22.027-12.398 29.977-7.9492 7.9492-18.734 12.41-29.977 12.398z" />
</svg>