<svg class="h-full w-full" viewBox="4 12 115 116" fill="none" xmlns="http://www.w3.org/2000/svg">
  <rect x="19" y="46" width="79" height="6" rx="3" className="fill-accent5" fill-opacity="0.8" />
  <rect x="19" y="58" width="48" height="6" rx="3" className="fill-accent5" fill-opacity="0.4" />
  <rect x="19" y="93" width="73" height="6" rx="3" className="fill-accent5" fill-opacity="0.7" />
  <rect x="19" y="70" width="42" height="6" rx="3" className="fill-accent5" />
  <rect x="19" y="81" width="50" height="6" rx="3" className="fill-accent5" fill-opacity="0.3" />
  <g clip-path="url(#clip0_323_2)">
    <path
      d="M94.7808 79.4602C94.6135 79.3112 94.4223 79.2039 94.2252 79.1265C96.3548 76.4777 97.6362 73.1018 97.6362 69.4281C97.6362 60.9066 90.7784 54 82.3166 54C73.8548 54 67 60.9066 67 69.4281C67 77.9495 73.8578 84.8561 82.3166 84.8561C85.9307 84.8561 89.2521 83.5928 91.8716 81.4833C91.9731 81.7574 92.1344 82.0136 92.3674 82.2222L93.6159 83.3276C94.3716 83.998 95.5275 83.9265 96.1935 83.1637C96.8596 82.401 96.7879 81.239 96.0293 80.5686L94.7808 79.4632V79.4602Z"
      className="fill-accent5" fill-opacity="0.4" />
    <path
      d="M82.3196 81.3909C88.88 81.3909 94.1983 76.035 94.1983 69.4281C94.1983 62.8212 88.88 57.4652 82.3196 57.4652C75.7591 57.4652 70.4409 62.8212 70.4409 69.4281C70.4409 76.035 75.7591 81.3909 82.3196 81.3909Z"
      className="fill-accent5" fill-opacity="0.6" />
    <path
      d="M111.062 93.6339C112.293 94.8525 112.317 96.8398 111.116 98.0704C109.915 99.3009 107.944 99.3099 106.71 98.0913L94.8973 86.3936C93.6667 85.1749 93.6428 83.1876 94.8435 81.957C96.0442 80.7265 98.0155 80.7176 99.2491 81.9362L111.062 93.6339Z"
      className="fill-accent5" fill-opacity="0.6" />
    <path
      d="M96.1308 83.2173C95.5693 83.8043 94.7061 83.9354 94.0072 83.5838C93.8309 84.573 94.1296 85.6308 94.8973 86.3935L106.71 98.0912C107.941 99.3098 109.912 99.3009 111.116 98.0704C111.185 97.9988 111.247 97.9273 111.31 97.8528L96.1338 83.2203L96.1308 83.2173Z"
      className="fill-accent5" fill-opacity="0.7" />
    <path
      d="M96.1308 83.2174L94.8345 81.9689C94.3895 82.4308 94.1147 82.9939 94.0072 83.5838C94.7061 83.9354 95.5663 83.8043 96.1308 83.2174Z"
      className="fill-accent5" fill-opacity="0.8" />
    <path
      d="M94.8345 81.9689L96.1308 83.2174C96.1488 83.1965 96.1726 83.1816 96.1906 83.1607C96.7073 82.5708 96.773 81.7455 96.4325 81.09C95.8471 81.2091 95.2915 81.4982 94.8435 81.957C94.8405 81.96 94.8375 81.966 94.8345 81.9689Z"
      className="fill-accent5" fill-opacity="0.6" />
  </g>
  <defs>
    <clipPath id="clip0_323_2">
      <rect width="45" height="45" fill="white" transform="translate(67 54)" />
    </clipPath>
  </defs>
</svg>