<svg xmlns="http://www.w3.org/2000/svg" width="100pt" height="100pt" viewBox="0 0 100 100">
    <path className="fill-accent4"
        d="M88.977 34.652V20.531c0-.566-.379-1.023-.844-1.023H13.988c-.465 0-.843.457-.843 1.023v59.406c0 .566.378 1.023.843 1.023h74.145c.465 0 .844-.457.844-1.023v-1.316l3.16-3.395v-37.52zm2.719 40.293l-3.125 3.356v1.3c0 .559-.375 1.012-.832 1.012l-73.316.004c-.461 0-.832-.453-.832-1.012l-.004-58.742c0-.558.37-1.011.832-1.011h73.316c.46 0 .832.453.832 1.011v13.961l3.125 3.024v37.098z">
    </path>
    <path className="fill-accent4"
        d="M88.977 34.652V20.531c0-.566-.379-1.023-.844-1.023H13.988c-.465 0-.843.457-.843 1.023v59.406c0 .566.378 1.023.843 1.023h74.145c.465 0 .844-.457.844-1.023v-1.316l3.16-3.395v-37.52zm2.719 40.293l-3.125 3.356v1.3c0 .559-.375 1.012-.832 1.012l-73.316.004c-.461 0-.832-.453-.832-1.012l-.004-58.742c0-.558.37-1.011.832-1.011h73.316c.46 0 .832.453.832 1.011v13.961l3.125 3.024v37.098z">
    </path>
    <path className="fill-accent4"
        d="M88.977 34.652V20.531c0-.566-.379-1.023-.844-1.023H13.988c-.465 0-.843.457-.843 1.023v59.406c0 .566.378 1.023.843 1.023h74.145c.465 0 .844-.457.844-1.023v-1.316l3.16-3.395v-37.52zm2.719 40.293l-3.125 3.356v1.3c0 .559-.375 1.012-.832 1.012l-73.316.004c-.461 0-.832-.453-.832-1.012l-.004-58.742c0-.558.37-1.011.832-1.011h73.316c.46 0 .832.453.832 1.011v13.961l3.125 3.024v37.098z">
    </path>
    <path className="fill-accent4"
        d="M88.977 34.652V20.531c0-.566-.379-1.023-.844-1.023H13.988c-.465 0-.843.457-.843 1.023v59.406c0 .566.378 1.023.843 1.023h74.145c.465 0 .844-.457.844-1.023v-1.316l3.16-3.395v-37.52zm2.719 40.293l-3.125 3.356v1.3c0 .559-.375 1.012-.832 1.012l-73.316.004c-.461 0-.832-.453-.832-1.012l-.004-58.742c0-.558.37-1.011.832-1.011h73.316c.46 0 .832.453.832 1.011v13.961l3.125 3.024v37.098z">
    </path>
    <path className="fill-accent4"
        d="M88.977 34.652V20.531c0-.566-.379-1.023-.844-1.023H13.988c-.465 0-.843.457-.843 1.023v59.406c0 .566.378 1.023.843 1.023h74.145c.465 0 .844-.457.844-1.023v-1.316l3.16-3.395v-37.52zm2.719 40.293l-3.125 3.356v1.3c0 .559-.375 1.012-.832 1.012l-73.316.004c-.461 0-.832-.453-.832-1.012l-.004-58.742c0-.558.37-1.011.832-1.011h73.316c.46 0 .832.453.832 1.011v13.961l3.125 3.024v37.098z">
    </path>
    <path className="fill-accent4"
        d="M88.977 34.652V20.531c0-.566-.379-1.023-.844-1.023H13.988c-.465 0-.843.457-.843 1.023v59.406c0 .566.378 1.023.843 1.023h74.145c.465 0 .844-.457.844-1.023v-1.316l3.16-3.395v-37.52zm2.719 40.293l-3.125 3.356v1.3c0 .559-.375 1.012-.832 1.012l-73.316.004c-.461 0-.832-.453-.832-1.012l-.004-58.742c0-.558.37-1.011.832-1.011h73.316c.46 0 .832.453.832 1.011v13.961l3.125 3.024v37.098z">
    </path>
    <path className="fill-accent4"
        d="M88.977 34.652V20.531c0-.566-.379-1.023-.844-1.023H13.988c-.465 0-.843.457-.843 1.023v59.406c0 .566.378 1.023.843 1.023h74.145c.465 0 .844-.457.844-1.023v-1.316l3.16-3.395v-37.52zm2.719 40.293l-3.125 3.356v1.3c0 .559-.375 1.012-.832 1.012l-73.316.004c-.461 0-.832-.453-.832-1.012l-.004-58.742c0-.558.37-1.011.832-1.011h73.316c.46 0 .832.453.832 1.011v13.961l3.125 3.024v37.098z">
    </path>
    <path className="fill-accent4"
        d="M6.773 30.797h18.81v13.207H6.772zM14.895 66.609v-.45H11.93v11.192h2.965v-.45H27.2V66.61zM85.441 61.824v-4.438h-.742v-.574c0-.422-.34-.761-.762-.761s-.762.34-.762.761v.575H81.25l.003-.575a.76.76 0 00-.761-.761.76.76 0 00-.762.761v.575h-1.926v-.575a.76.76 0 10-1.523 0v.574h-1.926v-.574c0-.422-.34-.761-.762-.761s-.761.34-.761.761v.575h-1.926v-.575c0-.422-.34-.761-.762-.761s-.762.34-.762.761v.575h-1.925v-.575a.76.76 0 00-.762-.761.76.76 0 00-.762.761v.575h-1.926v-.575a.76.76 0 10-1.523 0v.574h-1.926v-.57c0-.422-.34-.762-.762-.762s-.761.34-.761.762v.57H57.12v-.57a.76.76 0 10-1.523 0v.57h-1.926v-.57a.76.76 0 10-1.523 0v.57h-1.922v-.57c0-.422-.34-.762-.762-.762s-.762.34-.762.762v.57h-1.925v-.57c0-.422-.34-.762-.762-.762s-.762.34-.762.762v.57h-.738v9.04h.738v.3c0 .422.34.762.762.762s.762-.34.762-.762v-.3h1.925v.3c0 .422.34.762.762.762s.762-.34.762-.762v-.3h1.926v.3a.76.76 0 101.523 0v-.3h1.926v.3c0 .422.34.762.762.762s.761-.34.761-.762v-.3h1.926v.3c0 .422.34.762.762.762s.762-.34.762-.762v-.3h1.925v.3c0 .422.34.762.762.762s.762-.34.762-.762v-.3h1.926v.304a.76.76 0 101.523 0v-.304h1.926v.304c0 .422.34.762.762.762s.761-.34.761-.762v-.304h1.926v.304c0 .422.34.762.762.762s.762-.34.762-.762v-.304h1.925v.304c0 .422.34.762.762.762s.762-.34.762-.762v-.304h1.926v.304a.76.76 0 101.523 0v-.304h1.926v.304c0 .422.34.762.762.762s.761-.34.761-.762v-.304h.743v-3.543a.56.56 0 01-.387-.528.524.524 0 01.367-.531zM64.129 21.395v3.133H87.91v-3.133zm2.254 2.281h-1.426V22.25h1.426zm2.922 0h-1.426V22.25h1.426zm2.918 0h-1.426V22.25h1.426zm2.918 0h-1.426V22.25h1.426zm2.918 0h-1.426V22.25h1.426zm2.918 0H79.55V22.25h1.426zm2.918 0h-1.426V22.25h1.426zm2.922 0H85.39V22.25h1.426zM33.508 21.395v3.133h29.309v-3.133zm2.258 2.281H34.34V22.25h1.426zm2.918 0h-1.426V22.25h1.426zm2.918 0h-1.426V22.25h1.426zm2.918 0h-1.426V22.25h1.426zm2.918 0h-1.426V22.25h1.426zm2.922 0h-1.426V22.25h1.426zm2.918 0h-1.426V22.25h1.426zm2.918 0H54.77V22.25h1.426zm2.918 0h-1.426V22.25h1.426zm2.918 0h-1.426V22.25h1.426zM42.605 76.23v3.133h23.781l-.004-3.133zm2.254 2.281h-1.426v-1.426h1.426zm2.922 0h-1.426v-1.426h1.426zm2.918 0h-1.426v-1.426h1.426zm2.918 0H52.19v-1.426h1.426zm2.918 0h-1.426v-1.426h1.426zm2.918 0h-1.426v-1.426h1.426zm2.918 0h-1.426v-1.426h1.426zm2.922 0h-1.426v-1.426h1.426zM69.09 76.23v3.133h18.156V76.23zm2.254 2.281h-1.426v-1.426h1.426zm2.918 0h-1.426v-1.426h1.426zm2.918 0h-1.426v-1.426h1.426zm2.922 0h-1.426v-1.426h1.426zm2.918 0h-1.426v-1.426h1.426zm2.918 0h-1.426v-1.426h1.426zM18.531 20.824v6.266h7.05v-6.266zm3.523 4.988a1.849 1.849 0 010-3.695 1.849 1.849 0 010 3.695z">
    </path>
    <path fill="none" className="stroke-accent4" strokeMiterlimit="10" strokeWidth="0.168"
        d="M86.236 31.692H45.107M86.676 69.738H69.09M65.914 69.738H51.848"></path>
</svg>