<svg width="100pt" height="100pt" version="1.1" viewBox="0 0 100 100" xmlns="http://www.w3.org/2000/svg">
    <path
        d="m44.762 32.992c-0.12891 0.019531-0.25781 0.058593-0.375 0.11719l-9.4492 4.4102c-0.42969 0.20312-0.72656 0.66406-0.72656 1.1406 0 0.47656 0.29297 0.94141 0.72656 1.1406l9.4492 4.4102c0.76172 0.35547 1.7891-0.30078 1.7891-1.1406v-3.1484h27.66c0.60156 0 0.99219 0.011719 1.2383 0.039063 0.050781 6.2812 0.019531 13.031 0.019531 19.484 0 0.28516-0.015625 0.42969-0.019531 0.58984-0.15234 0.019532-0.28516 0.039063-0.60938 0.039063-0.64844 0-1.3711 0.007812-2.5156 0-0.66406-0.011719-1.2773 0.58594-1.2812 1.25-0.003907 0.66406 0.59766 1.2734 1.2617 1.2695 1.1602 0.007812 1.9023 0 2.5352 0 0.54297 0 0.98047-0.019531 1.4141-0.11719 0.43359-0.097656 0.94531-0.33594 1.2773-0.76953 0.33203-0.42969 0.40234-0.88281 0.43359-1.2383s0.019531-0.66406 0.019531-1.0234c-0.125-6.5195 0.17969-13.352-0.019531-19.762-0.035156-0.45312-0.125-1.0117-0.55078-1.4961-0.42578-0.48438-1.0156-0.65625-1.5117-0.72656-0.49609-0.070313-1.0078-0.058594-1.6875-0.058594h-27.66v-3.1484c0.003906-0.71484-0.70703-1.3477-1.4141-1.2578zm-1.1016 3.2266v4.8828l-5.207-2.4414zm-18.23 1.1797c-0.54297 0-0.98047 0-1.4141 0.097656s-0.94531 0.33594-1.2773 0.76953c-0.33203 0.42969-0.40234 0.88281-0.43359 1.2383 0.10156 7.3867-0.20313 14.312 0 20.785 0.035156 0.45313 0.125 1.0117 0.55078 1.4961s0.99609 0.65625 1.4922 0.72656c0.49609 0.070312 1.0273 0.078125 1.7109 0.078125h27.66v3.1484c-0.003906 0.85156 1.043 1.5156 1.8086 1.1406l9.4102-4.4102c0.42969-0.20312 0.72656-0.66406 0.72656-1.1406s-0.29297-0.94141-0.72656-1.1406l-9.4102-4.4102c-0.23047-0.11328-0.49219-0.15625-0.74609-0.11719-0.58984 0.09375-1.0664 0.66016-1.0625 1.2578v3.1484h-27.66c-0.60156 0-0.99219-0.03125-1.2383-0.058594-0.042968-6.7305-0.019531-14.125-0.019531-20.074 1.0508-0.039063 2.2617-0.023438 3.1445-0.019532 0.66406 0.007813 1.2734-0.59375 1.2734-1.2578s-0.60938-1.2695-1.2734-1.2578c-1.1602-0.007813-1.8828 0-2.5156 0zm30.801 21.492 5.207 2.4414-5.207 2.4414z"
        className="fill-accent2" />
</svg>