<svg width="100pt" height="100pt" version="1.1" viewBox="0 0 100 100" xmlns="http://www.w3.org/2000/svg">
    <path
        d="m15.609 55.809c0.050781 0.19141 0.12891 0.37891 0.26953 0.51953l11.129 11.129c0.011719 0.011719 0.03125 0.019531 0.039063 0.03125l5.5039 5.5117c0.039063 0.039062 0.070313 0.070312 0.10938 0.10156l5.3711 5.3711c0.03125 0.03125 0.050781 0.070313 0.089844 0.10156l5.4609 5.4609c0.03125 0.039063 0.058594 0.078125 0.10156 0.10938l5.5586 5.5391c0.10156 0.10156 0.21875 0.17188 0.33984 0.23047 0.011719 0 0.011719 0.011719 0.011719 0.011719 0.125 0.042969 0.26562 0.074219 0.40625 0.074219s0.28125-0.03125 0.41016-0.078125c0.12891-0.050781 0.25-0.12891 0.35938-0.23828l5.5508-5.5391c0.03125-0.03125 0.058594-0.070312 0.089844-0.10938l5.4609-5.4492 0.011718-0.011719c0.011719-0.011719 0.011719-0.019531 0.011719-0.019531l22.227-22.227c0.19922-0.19922 0.32031-0.48047 0.32031-0.76953v-11.129h-0.019531c0-0.26953-0.10938-0.55078-0.32031-0.76172l-11.07-11.066c-0.011719-0.011718-0.019531-0.03125-0.03125-0.039062l-11.09-11.094c-0.011718-0.011719-0.019531-0.03125-0.03125-0.039062l-11.109-11.109c-0.19922-0.19922-0.48047-0.32031-0.76953-0.32031s-0.57031 0.12109-0.76953 0.32031l-11.109 11.109c-0.011719 0.011718-0.011719 0.011718-0.011719 0.019531l-11.109 11.102-11.109 11.109c-0.10156 0.10156-0.17188 0.21094-0.23047 0.33984 0 0.011719-0.011718 0.011719-0.019531 0.019531-0.011719 0.011719 0 0.03125 0 0.039063-0.039063 0.12109-0.070313 0.23828-0.070313 0.35938l-0.011718 11.121c0 0.070313 0.03125 0.12891 0.039062 0.19141 0.003906 0.039062 0.003906 0.058593 0.011719 0.078125zm22.18 19.332-3.6602-3.6602c-0.03125-0.03125-0.070312-0.070313-0.10938-0.10156l-5.1484-5.1719v-8.0078l8.9297 8.9297v8.0117zm-3.6094-14.719c-0.039063-0.050781-0.089844-0.10156-0.14844-0.14844l-4.6992-4.7188 4.7812-4.7695c0.03125-0.03125 0.070313-0.070312 0.10156-0.10938l4.6758-4.6758 9.5703 9.5703-4.7812 4.7695c-0.011719 0.011718-0.019532 0.019531-0.03125 0.03125l-4.7617 4.7617zm6.25-15.973 9.5703-9.5703 9.5625 9.5625-1.2695 1.2695-3.5195 3.5117c-0.011719 0.011719-0.019532 0.03125-0.03125 0.039063l-4.7617 4.75-4.7617-4.7695c-0.03125-0.03125-0.070312-0.070313-0.10938-0.089844zm8.4805 41.812-3.6797-3.6797c-0.03125-0.039062-0.070313-0.070312-0.10938-0.10156l-5.1523-5.1523 0.011719-8.0117 3.6992 3.6992 5.2383 5.2305 0.003906 8.0156zm1.0898-10.012-4.5781-4.5703-0.17969-0.17969c-0.011719-0.011719-0.019532-0.03125-0.03125-0.039062l-4.7891-4.7695 4.6914-4.6797c0.039063-0.03125 0.078125-0.058594 0.12109-0.10156l4.7656-4.7812 4.7812 4.7812c0.011719 0.011719 0.03125 0.019532 0.039062 0.03125l4.7578 4.7578-4.7695 4.7695c-0.011719 0.011719-0.019532 0.011719-0.019532 0.011719zm10.02 1.1016-5.1484 5.1484c-0.039063 0.03125-0.070313 0.058594-0.10156 0.089844l-3.6797 3.6797v-8.0117l8.9297-8.9102zm1.1016-12.211-4.7812-4.7695-0.023438-0.023438-4.7891-4.7812 4.6992-4.6992c0.039063-0.03125 0.070313-0.058594 0.10156-0.089844l4.7812-4.7773 9.5898 9.5703zm10.02 1.0781-8.9297 8.9102v-8.0117l8.9297-8.9102zm11.121-11.117-8.9414 8.9297v-8.0312l8.9414-8.9414zm-0.46094-10.652-9.5703 9.5703-9.5703-9.5703 9.5703-9.5586zm-11.109-11.129-7.5117 7.5117-2.0703 2.0586-4.7695-4.7695s0-0.011719-0.011719-0.011719c0 0 0-0.011719-0.011719-0.011719l-4.7891-4.7812 9.5781-9.5781zm-20.691-20.691 9.5703 9.5703-8.9883 8.9883-0.58203 0.59375-9.5703-9.5703zm-11.109 11.121 9.5781 9.5781-0.78125 0.78125-8.8008 8.7891-9.5703-9.5703zm-11.121 11.121 9.5703 9.5703-4.7891 4.7812c-0.03125 0.03125-0.070312 0.070313-0.10156 0.10938l-4.6914 4.6797-9.5703-9.5703zm-10.02 12.199 8.9297 8.9297v8.0312l-7.5195-7.5117-1.4219-1.4219z"
        className="fill-accent2" />
</svg>