<svg
  width="100pt"
  height="100pt"
  version="1.1"
  viewBox="0 0 100 100"
  xmlns="http://www.w3.org/2000/svg"
>
  <path
    d="m50 21.66c-2.2031 0-3.9844 1.1328-7.1875 2.9844l-11.176 6.4531c-3.2031 1.8477-5.0742 2.8242-6.1758 4.7344-1.1016 1.9062-1.0117 4.0195-1.0117 7.7148v12.906c0 3.6992-0.089844 5.8086 1.0117 7.7148 1.1016 1.9062 2.9766 2.8828 6.1758 4.7344l11.176 6.4531c3.2031 1.8477 4.9844 2.9844 7.1875 2.9844s3.9844-1.1328 7.1836-2.9844l11.18-6.4531c3.2031-1.8477 5.0742-2.8242 6.1758-4.7344 1.1016-1.9062 1.0117-4.0195 1.0117-7.7148v-12.906c0-3.6992 0.089844-5.8086-1.0117-7.7148-1.1016-1.9062-2.9727-2.8828-6.1758-4.7344l-11.18-6.4531c-3.2031-1.8477-4.9805-2.9844-7.1836-2.9844zm0 3.125c1 0 2.418 0.71484 5.6211 2.5664l11.18 6.4531c1.8984 1.0938 3.0859 1.832 3.8828 2.4414l-15.062 8.6992c-3.2031 1.8477-4.6211 2.5625-5.6211 2.5625s-2.4219-0.71484-5.625-2.5625l-15.062-8.6953c0.80078-0.61328 1.9883-1.3477 3.8867-2.4453l11.176-6.4531c3.2031-1.8477 4.625-2.5664 5.625-2.5664zm-12.625 9.1836c-2.082 0-3.7695 0.97656-3.7695 2.1758 0 1.2031 1.6875 2.1758 3.7695 2.1758s3.7695-0.97656 3.7695-2.1758c0-0.58984-0.41016-1.1523-1.1406-1.5625-0.70312-0.39453-1.6484-0.61328-2.6289-0.61328zm12.625 0c-2.082 0-3.7695 0.97656-3.7695 2.1758 0 1.2031 1.6914 2.1758 3.7695 2.1758 2.082 0 3.7695-0.97266 3.7695-2.1758 0-0.56641-0.38281-1.1133-1.0664-1.5195-0.71094-0.42188-1.6836-0.66016-2.7031-0.66016zm12.621 0c-2.082 0-3.7695 0.97656-3.7695 2.1758 0 1.2031 1.6914 2.1758 3.7695 2.1758 2.082 0 3.7695-0.97266 3.7695-2.1758 0-0.58984-0.41016-1.1523-1.1406-1.5625-0.70312-0.39453-1.6445-0.61328-2.625-0.61328zm9.6289 4.9844c0.12891 1 0.17578 2.3945 0.17578 4.5898v12.906c0 3.6992-0.089843 5.2891-0.58984 6.1523-0.5 0.86719-1.8281 1.7383-5.0312 3.5898l-11.18 6.4531c-1.8984 1.0977-3.1289 1.7578-4.0586 2.1445v-17.395c0-3.6992 0.089844-5.2891 0.58984-6.1523 0.5-0.86719 1.8281-1.7383 5.0312-3.5898l15.062-8.6953zm-44.496 0.003906 15.059 8.6953c3.2031 1.8477 4.5312 2.7227 5.0312 3.5898 0.5 0.86719 0.59375 2.4531 0.59375 6.1523v17.395c-0.92969-0.38672-2.1641-1.0469-4.0625-2.1445l-11.176-6.4531c-3.2031-1.8477-4.5312-2.7227-5.0312-3.5898-0.5-0.86719-0.59375-2.4531-0.59375-6.1523v-12.906c0-2.1914 0.046875-3.5859 0.17578-4.5859zm41.555 3.6016c-0.32812 0.035156-0.67969 0.16016-1.043 0.375-0.69141 0.41016-1.3555 1.1172-1.8438 1.9648-1.0391 1.8047-1.0391 3.75 0 4.3516s2.7266-0.37109 3.7695-2.1758c1.0391-1.8047 1.0391-3.7539 0-4.3555-0.25391-0.14844-0.55469-0.19922-0.88281-0.16406zm-26.027 7.2812c-0.3125-0.027344-0.60156 0.03125-0.84766 0.17188-1.0391 0.60156-1.0391 2.5469 0 4.3516 1.0391 1.8047 2.7266 2.7773 3.7695 2.1758 1.0391-0.60156 1.0391-2.5508 0-4.3555-0.50781-0.88281-1.1992-1.6055-1.9219-2.0078-0.34766-0.19531-0.6875-0.30859-1-0.33594zm13.445 0c-0.3125 0.027344-0.65234 0.13672-1 0.33203-0.71875 0.40234-1.4141 1.1289-1.9219 2.0117-1.0391 1.8047-1.0391 3.75 0 4.3516 1.0391 0.60156 2.7266-0.37109 3.7695-2.1758 1.0391-1.8047 1.0391-3.7539 0-4.3555-0.24609-0.14062-0.53125-0.19531-0.84766-0.16797zm12.621 0c-0.3125 0.027344-0.65234 0.13672-1 0.33203-0.71875 0.40234-1.4141 1.1289-1.9219 2.0117-1.0391 1.8047-1.0391 3.7539 0 4.3555 1.0391 0.60156 2.7266-0.375 3.7695-2.1758 1.0391-1.8047 1.0391-3.7539 0-4.3555-0.24609-0.14062-0.53125-0.19531-0.84766-0.16797zm-38.688 7.2852c-0.3125-0.027344-0.60156 0.027344-0.84766 0.17188-1.0391 0.60156-1.0391 2.5508 0 4.3555 1.0391 1.8047 2.7305 2.7734 3.7695 2.1758 1.0391-0.60156 1.0391-2.5469 0-4.3516-0.50781-0.88281-1.2031-1.6094-1.9219-2.0117-0.34766-0.19531-0.6875-0.30859-1-0.33594zm26.066 0c-0.3125 0.027344-0.65234 0.14062-1 0.33594-0.71875 0.40234-1.4141 1.1289-1.9219 2.0078-1.0391 1.8047-1.0391 3.7539 0 4.3555 1.0391 0.60156 2.7266-0.375 3.7695-2.1758 1.0391-1.8047 1.0391-3.75 0-4.3516-0.24609-0.14062-0.53125-0.19922-0.84766-0.17188zm12.621 0c-0.3125 0.027344-0.65234 0.14062-1 0.33594-0.71875 0.40625-1.4141 1.1289-1.9219 2.0117-1.0391 1.8047-1.0391 3.75 0 4.3516 1.0391 0.60156 2.7266-0.37109 3.7695-2.1758 1.0391-1.8047 1.0391-3.7539 0-4.3555-0.24609-0.14062-0.53125-0.19922-0.84766-0.17188zm-12.656 7.293c-0.32812 0.035156-0.67969 0.16016-1.043 0.37109-0.69531 0.41406-1.3555 1.1211-1.8438 1.9688-1.0391 1.8047-1.0391 3.75 0 4.3516 1.0391 0.60156 2.7266-0.37109 3.7695-2.1758 1.0391-1.8047 1.0391-3.7539 0-4.3555-0.25391-0.14844-0.55469-0.19922-0.88281-0.16406z"
    class="fill-accent2"
    fill-rule="evenodd"
  />
</svg>
